<?xml version="1.0" standalone="no"?>
<!DOCTYPE svg PUBLIC "-//W3C//DTD SVG 20010904//EN"
 "http://www.w3.org/TR/2001/REC-SVG-20010904/DTD/svg10.dtd">
<svg version="1.0" xmlns="http://www.w3.org/2000/svg"
 width="3500.000000pt" height="2333.000000pt" viewBox="0 0 3500.000000 2333.000000"
 preserveAspectRatio="xMidYMid meet">

<g transform="translate(0.000000,2333.000000) scale(0.100000,-0.100000)"
fill="#000000" stroke="none">
<path d="M0 11665 l0 -11665 17500 0 17500 0 0 11665 0 11665 -17500 0 -17500
0 0 -11665z m24330 11255 c0 -12 -40 -34 -48 -26 -3 4 3 13 14 21 22 17 34 19
34 5z m1520 -1370 c0 -12 -40 -33 -48 -25 -4 4 2 13 12 21 23 16 36 18 36 4z
m-9863 -1366 c-7 -7 -37 7 -37 17 0 6 9 5 21 -1 11 -7 19 -14 16 -16z m751
-494 c-13 -22 -24 -35 -26 -30 -5 13 27 70 39 70 5 0 -1 -18 -13 -40z m7919
-508 c38 -21 44 -73 39 -329 -7 -303 -8 -600 -6 -1295 1 -306 -1 -562 -5 -568
-4 -6 -8 -412 -9 -903 -2 -491 -4 -893 -5 -895 0 -2 -18 -10 -38 -19 -30 -12
-84 -16 -248 -19 -357 -5 -2778 -18 -3005 -16 -355 3 -339 -7 -341 211 l-2
146 -7 -100 c-11 -147 -20 -229 -29 -243 -4 -6 -34 -15 -68 -20 -33 -5 -819
-8 -1747 -8 l-1686 1 -24 26 c-39 42 -51 173 -41 469 7 206 14 532 19 810 0
36 -1 128 -3 205 -3 123 -4 216 -3 375 0 25 0 81 -1 125 0 44 0 103 0 130 5
268 4 578 -1 655 -15 211 -14 704 0 860 8 85 12 178 8 206 -12 97 34 140 157
149 139 10 3219 22 3269 12 14 -2 35 -5 48 -6 13 0 37 -14 53 -30 29 -29 29
-30 30 -158 0 -70 7 -150 14 -178 l13 -50 2 85 c1 47 3 131 3 187 2 134 9 141
133 153 97 9 385 14 784 15 243 0 833 9 1740 25 559 10 929 7 957 -8z m-7369
-66 c66 -12 92 -28 118 -72 23 -40 24 -44 10 -66 -14 -22 -15 -214 -10 -1869
3 -1014 2 -1866 -1 -1892 -10 -68 -27 -77 -166 -82 -100 -4 -2133 -16 -2994
-19 -170 0 -326 3 -347 7 -66 14 -72 34 -76 262 -2 110 1 290 8 400 11 178 10
206 -4 256 -30 101 -20 683 13 814 6 25 7 43 1 49 -6 6 -10 48 -10 95 0 46 -4
98 -10 115 -5 17 -13 60 -18 96 -6 52 -17 -656 -14 -970 0 -25 4 -277 7 -561
6 -380 5 -521 -4 -537 -6 -12 -29 -26 -52 -32 -53 -15 -640 -17 -1769 -8
-1311 11 -1629 17 -1686 28 -91 19 -86 -33 -88 872 -1 431 -6 789 -10 796 -4
6 -6 141 -5 299 1 159 2 302 2 318 0 17 0 154 0 305 0 151 -1 295 -3 320 -1
25 -2 64 -2 88 2 166 2 311 -2 613 -2 191 0 353 5 360 10 16 196 17 2064 5
1381 -8 1476 -11 1536 -41 22 -12 27 -11 37 5 6 10 28 24 49 30 27 8 375 13
1208 17 644 3 1171 6 1172 6 5 5 1011 -2 1041 -7z m9845 -3093 c3 -5 1 -17 -4
-28 -4 -11 -8 -15 -8 -8 -1 6 -4 18 -7 27 -6 16 11 23 19 9z m-4033 -1953 c0
-5 -4 -10 -10 -10 -5 0 -10 5 -10 10 0 6 5 10 10 10 6 0 10 -4 10 -10z m11360
-1509 c0 -13 -28 -22 -35 -11 -3 4 1 11 7 13 20 8 28 8 28 -2z m-12053 -2063
c-3 -8 -6 -5 -6 6 -1 11 2 17 5 13 3 -3 4 -12 1 -19z m1760 0 c-3 -8 -6 -5 -6
6 -1 11 2 17 5 13 3 -3 4 -12 1 -19z m-17294 -531 c18 0 23 -3 15 -9 -7 -4 46
-8 118 -8 72 0 146 -3 164 -7 26 -5 31 -3 25 7 -5 7 -4 11 1 8 5 -4 35 -9 67
-12 50 -6 57 -4 58 11 1 17 2 17 6 1 4 -17 6 -17 21 -1 16 15 17 15 20 0 2 -9
10 -17 19 -17 9 0 13 6 9 15 -3 8 -1 15 5 15 5 0 12 -7 15 -15 5 -12 30 -15
135 -15 71 0 129 4 129 9 0 5 -19 7 -42 4 -29 -4 -39 -3 -34 5 11 18 86 15 86
-3 0 -10 11 -15 35 -15 43 0 45 7 4 17 -20 6 7 9 85 10 65 0 113 -3 110 -8 -3
-5 -23 -9 -45 -9 -21 0 -39 -4 -39 -9 0 -5 38 -9 85 -9 79 1 99 9 50 21 -13 3
-9 5 13 6 17 0 32 -3 32 -8 0 -14 94 -25 98 -12 5 14 42 15 42 1 0 -5 7 -10
15 -10 9 0 12 6 8 16 -4 12 -2 15 8 12 8 -3 13 -11 12 -17 -4 -15 54 -14 61 2
5 10 7 10 12 0 8 -17 160 -18 170 -1 5 8 10 7 18 -3 9 -11 50 -14 191 -16 99
-1 170 1 158 3 -47 11 -20 24 45 22 41 -1 52 -3 30 -5 -66 -7 -41 -23 36 -23
56 0 75 4 80 15 3 8 12 15 21 15 21 0 19 -17 -2 -23 -10 -3 13 -5 51 -6 63 -1
67 0 55 16 -12 15 -12 16 4 10 10 -4 28 -7 38 -7 11 0 18 -4 15 -9 -8 -12 124
-23 251 -20 112 3 134 6 113 19 -16 10 53 18 77 9 13 -6 9 -8 -14 -8 -18 -1
-33 -5 -33 -11 0 -6 37 -10 90 -10 65 0 90 3 90 13 0 8 3 8 8 2 9 -14 72 -18
72 -6 0 5 -8 11 -17 14 -10 2 -1 4 20 4 29 1 37 -2 33 -13 -6 -16 -5 -16 124
-14 52 0 110 6 129 12 19 6 36 7 40 1 6 -9 1091 -15 1150 -5 l34 5 -24 13
c-24 13 -24 13 11 15 19 1 40 0 45 -2 6 -1 20 -2 32 -2 14 1 20 -4 16 -12 -5
-15 106 -22 250 -17 81 3 108 21 35 23 l-43 2 40 6 c47 7 125 2 125 -8 0 -4
-16 -5 -35 -3 -21 3 -35 0 -35 -7 0 -8 47 -11 148 -12 81 0 212 -2 291 -4 79
-2 151 0 160 5 11 6 -30 10 -119 11 -223 2 -205 17 25 19 406 5 522 5 710 -4
105 -4 197 -7 205 -6 74 7 504 10 531 3 24 -7 35 -16 37 -31 4 -25 5 -25 53
-12 92 26 10 25 1849 21 267 -1 555 -1 640 0 85 0 218 -2 295 -5 77 -4 250 -8
385 -11 276 -5 340 -11 340 -31 0 -10 5 -12 18 -5 60 31 74 32 205 29 76 -2
137 0 137 5 0 4 47 7 105 6 60 0 103 -5 99 -10 -3 -5 2 -9 11 -9 9 0 14 4 11
9 -7 11 39 18 92 13 28 -3 40 -8 35 -16 -3 -6 -1 -6 8 2 19 18 105 16 113 -3
7 -18 37 -20 54 -3 9 9 47 12 129 10 123 -3 172 -12 63 -12 -35 0 -60 -3 -56
-7 3 -4 66 -6 139 -5 197 2 184 1 167 12 -10 6 98 10 315 11 182 1 358 3 393
4 34 2 65 -1 68 -6 3 -5 -25 -9 -63 -9 -48 0 -63 -3 -53 -10 18 -11 104 -11
140 0 17 5 19 8 8 9 -10 1 -18 5 -18 9 0 8 300 6 308 -3 3 -3 -7 -5 -21 -5
-15 0 -27 -4 -27 -8 0 -4 54 -9 120 -11 80 -1 120 1 120 8 0 7 -34 11 -92 11
-50 0 -89 3 -85 6 10 10 442 5 445 -5 2 -7 12 -7 28 0 33 12 54 12 34 -1 -10
-7 21 -9 95 -8 78 0 98 3 70 8 -29 5 -8 8 75 10 63 1 118 2 122 1 4 0 53 -1
110 -2 57 0 109 -6 116 -11 9 -8 16 -6 27 8 8 10 15 14 15 7 0 -6 9 -15 21
-18 16 -5 18 -9 8 -21 -14 -17 -30 -433 -19 -474 4 -14 6 -349 4 -745 -2 -396
-3 -772 -2 -835 1 -237 0 -307 -7 -385 -8 -90 -9 -80 4 -194 5 -49 6 -94 0
-108 -5 -14 -3 -68 6 -144 10 -84 11 -136 4 -175 -5 -30 -13 -78 -18 -107 -6
-33 -5 -68 1 -97 15 -65 15 -627 0 -663 -7 -17 -27 -35 -49 -45 -34 -15 -78
-17 -403 -15 -201 2 -414 5 -475 8 -143 6 -27 6 -1345 3 -1096 -2 -1158 -1
-1218 16 -38 12 -67 26 -73 38 -11 20 -14 225 -11 663 3 546 -5 3216 -11 3221
-3 3 -11 -4 -17 -16 -9 -16 -11 -241 -9 -868 7 -1929 4 -2981 -8 -2993 -6 -6
-51 -20 -100 -30 -79 -17 -125 -18 -473 -13 -212 2 -646 7 -965 9 -319 2 -607
5 -640 6 -33 1 -136 1 -230 0 -387 -3 -846 2 -930 11 -60 7 -93 15 -101 25 -8
12 -13 13 -18 5 -9 -14 -62 -16 -71 -3 -3 6 10 8 31 5 32 -4 35 -2 32 18 -2
18 -12 25 -48 32 -25 5 -48 14 -52 20 -4 6 -7 110 -7 233 0 168 3 223 12 223
9 0 9 2 -1 8 -9 6 -13 63 -13 233 -1 123 -1 271 -2 329 -2 208 2 2439 5 2603
2 92 0 167 -4 167 -8 0 -19 -55 -17 -85 1 -11 -1 -123 -5 -250 -16 -620 -25
-2125 -12 -2117 5 3 6 -5 1 -19 -4 -13 -8 -42 -7 -64 3 -234 0 -1248 -4 -1272
-8 -43 -35 -59 -119 -68 -70 -8 -965 -8 -1340 0 -110 2 -573 4 -1030 5 -456 1
-862 5 -902 9 -95 11 -143 35 -167 86 l-20 40 -8 -45 c-16 -82 -23 -95 -58
-113 -33 -18 -66 -18 -605 -13 -729 8 -2573 34 -2730 40 -66 2 -132 8 -147 14
-37 15 -51 72 -48 197 2 55 1 114 0 130 -2 17 -2 77 -2 135 1 58 1 164 0 235
-1 72 -1 148 -1 170 1 22 1 67 1 100 0 183 4 1058 5 1160 1 66 1 138 -1 160
-1 22 0 189 2 370 3 182 6 364 6 405 1 41 -1 251 -4 467 l-6 392 23 25 c21 23
29 25 152 29 149 6 146 6 120 17 -14 7 -8 8 20 3 22 -3 53 -6 68 -6z m110 -4
c-7 -2 -21 -2 -30 0 -10 3 -4 5 12 5 17 0 24 -2 18 -5z m60 0 c-7 -2 -21 -2
-30 0 -10 3 -4 5 12 5 17 0 24 -2 18 -5z m94 1 c-3 -3 -12 -4 -19 -1 -8 3 -5
6 6 6 11 1 17 -2 13 -5z m313 -4 c0 -5 -2 -10 -4 -10 -3 0 -8 5 -11 10 -3 6
-1 10 4 10 6 0 11 -4 11 -10z m50 0 c0 -5 -4 -10 -10 -10 -5 0 -10 5 -10 10 0
6 5 10 10 10 6 0 10 -4 10 -10z m68 3 c-10 -2 -26 -2 -35 0 -10 3 -2 5 17 5
19 0 27 -2 18 -5z m828 -16 c4 -4 -11 -7 -34 -7 -22 0 -43 4 -46 9 -7 10 70 8
80 -2z m2150 0 c4 -4 -14 -7 -40 -7 -27 0 -45 4 -41 9 6 11 70 9 81 -2z m174
-2 c0 -13 -29 -15 -110 -5 -21 2 -19 4 10 9 63 12 100 10 100 -4z m13460 6 c0
-5 62 -9 137 -10 118 -1 142 -4 180 -23 38 -19 47 -20 85 -9 33 10 174 12 648
7 1037 -10 1713 -18 1765 -21 28 -1 56 2 63 8 9 7 28 7 60 -1 71 -17 514 -11
520 7 3 10 6 10 12 1 11 -17 87 -25 104 -10 9 6 20 8 27 4 6 -4 67 -8 134 -10
172 -4 298 -39 332 -91 16 -25 18 -54 16 -308 -2 -336 -2 -734 0 -792 1 -31 6
-43 17 -43 12 -1 12 -3 -3 -14 -16 -12 -18 -40 -22 -287 -7 -366 -6 -732 2
-909 11 -227 7 -771 -10 -1428 -4 -163 -6 -167 -117 -176 -84 -7 -958 -8 -969
-2 -4 3 -191 7 -417 11 -225 3 -571 7 -769 10 -1107 15 -1150 16 -1206 31 -31
8 -66 14 -76 14 -29 0 -49 30 -52 75 -1 22 -6 69 -10 105 -13 102 -14 349 -2
364 7 9 7 24 0 51 -7 24 -8 63 -3 104 9 73 9 133 0 291 -3 58 -6 249 -5 425 3
1398 0 2482 -8 2502 -10 27 -33 13 -33 -19 -1 -18 -3 -73 -5 -123 -13 -304
-15 -621 -5 -692 17 -131 15 -650 -4 -768 -20 -126 -14 -455 15 -841 16 -209
-4 -1273 -26 -1389 -3 -16 -19 -43 -34 -58 -24 -25 -40 -30 -107 -38 -78 -9
-2684 -12 -3103 -4 -301 6 -321 14 -321 132 0 56 4 75 15 79 8 4 15 11 15 16
0 6 -6 8 -14 5 -16 -7 -29 58 -25 133 3 66 -11 501 -16 510 -7 11 -6 695 1
760 3 30 5 64 5 75 -4 117 -15 954 -15 1206 -1 308 0 328 18 348 16 18 17 25
7 47 -17 39 -24 147 -25 424 -1 205 -3 247 -16 257 -13 10 -13 13 0 26 13 13
154 16 960 21 520 4 1236 7 1592 7 379 1 650 5 654 10 7 12 34 12 34 0z
m-15491 -17 c2 -2 -7 -4 -22 -4 -14 0 -29 5 -32 10 -6 10 42 4 54 -6z m591 6
c0 -5 -5 -10 -11 -10 -5 0 -7 5 -4 10 3 6 8 10 11 10 2 0 4 -4 4 -10z m1745 0
c3 -5 -1 -10 -9 -10 -9 0 -16 5 -16 10 0 6 4 10 9 10 6 0 13 -4 16 -10z m512
-1 c-24 -6 -45 -5 -55 1 -12 7 -2 9 38 9 55 -1 55 -1 17 -10z m407 1 c-6 -6
-21 -6 -39 -1 -30 9 -30 9 10 10 25 1 36 -2 29 -9z m-3217 -6 c-3 -3 -12 -4
-19 -1 -8 3 -5 6 6 6 11 1 17 -2 13 -5z m730 0 c-3 -3 -12 -4 -19 -1 -8 3 -5
6 6 6 11 1 17 -2 13 -5z m528 -4 c3 -5 -1 -10 -9 -10 -9 0 -16 5 -16 10 0 6 4
10 9 10 6 0 13 -4 16 -10z m992 -1 c-14 -8 -22 -8 -30 0 -8 8 -3 11 19 11 25
-1 27 -2 11 -11z m16773 1 c0 -5 -4 -10 -10 -10 -5 0 -10 5 -10 10 0 6 5 10
10 10 6 0 10 -4 10 -10z m3337 -6 c-3 -3 -12 -4 -19 -1 -8 3 -5 6 6 6 11 1 17
-2 13 -5z m-12489 -31 c-21 -2 -55 -2 -75 0 -21 2 -4 4 37 4 41 0 58 -2 38 -4z
m1779 1 c-3 -3 -12 -4 -19 -1 -8 3 -5 6 6 6 11 1 17 -2 13 -5z m9231 -5063
c26 -14 -2 -20 -53 -10 -72 13 -85 33 -16 25 30 -4 61 -11 69 -15z m-15808
-3346 c0 -8 -7 -15 -15 -15 -16 0 -20 12 -8 23 11 12 23 8 23 -8z"/>
<path d="M21031 18514 c0 -11 3 -14 6 -6 3 7 2 16 -1 19 -3 4 -6 -2 -5 -13z"/>
<path d="M21030 18143 c0 -54 -4 -287 -8 -518 -16 -963 -6 -2063 20 -2037 10
10 10 108 0 712 -5 326 -4 457 4 940 8 443 7 351 5 697 -2 164 -7 295 -12 299
-5 3 -9 -36 -9 -93z"/>
<path d="M18990 18166 c-7 -9 -17 -13 -24 -9 -6 4 -50 9 -98 10 -64 1 -90 -2
-98 -12 -16 -20 -14 -166 2 -177 10 -6 10 -8 1 -8 -8 0 -13 -15 -13 -40 0 -22
5 -40 10 -40 14 0 13 -47 -1 -52 -9 -3 -13 -108 -16 -371 -3 -322 -1 -368 12
-373 19 -8 20 -30 1 -37 -12 -5 -14 -43 -12 -229 2 -123 4 -230 4 -238 0 -8
-3 -80 -6 -160 -4 -80 -6 -164 -4 -188 4 -52 26 -66 53 -33 10 12 20 17 24 11
3 -5 1 -10 -6 -10 -7 0 -9 -3 -5 -7 4 -5 61 -8 127 -8 l119 0 6 43 c5 36 3 46
-15 63 -26 25 -27 39 -1 39 17 0 20 7 20 45 0 33 -4 45 -15 45 -19 0 -19 14 0
30 21 18 22 505 0 514 -8 3 -15 18 -15 33 1 27 1 27 15 9 20 -26 46 -6 29 22
-6 10 -12 44 -13 77 0 32 -5 63 -11 69 -13 13 -13 39 0 31 5 -3 10 64 12 177
3 154 0 188 -14 216 -15 31 -15 33 2 42 17 9 18 23 17 134 -2 103 1 127 15
142 15 18 15 20 -3 43 -10 13 -19 36 -19 53 0 16 -9 41 -19 56 -25 34 -36 72
-22 72 6 0 11 -11 11 -25 0 -23 2 -24 20 -15 27 15 26 46 -2 53 -13 2 -30 7
-39 11 -9 4 -21 0 -29 -8z m-50 -51 c21 -25 2 -31 -20 -7 -15 16 -17 22 -7 22
8 0 20 -7 27 -15z m-90 -70 c0 -8 -7 -15 -15 -15 -16 0 -20 12 -8 23 11 12 23
8 23 -8z m90 -40 c0 -8 -4 -15 -10 -15 -5 0 -10 7 -10 15 0 8 5 15 10 15 6 0
10 -7 10 -15z m-60 -37 c0 -10 -3 -18 -6 -18 -10 0 -42 45 -38 52 8 13 44 -16
44 -34z m101 -50 c4 -16 3 -30 -1 -33 -10 -6 -40 33 -40 53 0 24 33 8 41 -20z
m36 6 c-9 -9 -28 6 -21 18 4 6 10 6 17 -1 6 -6 8 -13 4 -17z m-109 -76 c-6
-18 -28 -21 -28 -4 0 9 7 16 16 16 9 0 14 -5 12 -12z m142 -98 c0 -5 -7 -10
-15 -10 -8 0 -15 5 -15 10 0 6 7 10 15 10 8 0 15 -4 15 -10z m-48 -35 c0 -5
-5 -11 -11 -13 -6 -2 -11 4 -11 13 0 9 5 15 11 13 6 -2 11 -8 11 -13z m-103
-170 c15 -15 7 -35 -13 -35 -22 0 -60 36 -52 49 9 13 44 6 65 -14z m106 -234
c3 -5 1 -12 -4 -15 -5 -3 -11 1 -15 9 -6 16 9 21 19 6z m-25 -108 c0 -2 -4 -3
-8 -3 -14 0 -62 45 -62 57 0 6 16 -3 35 -20 19 -17 35 -32 35 -34z m-95 -13
c3 -5 -1 -10 -10 -10 -9 0 -13 5 -10 10 3 6 8 10 10 10 2 0 7 -4 10 -10z m-45
-140 c0 -5 9 -10 19 -10 22 0 35 -15 26 -30 -4 -6 -12 -6 -23 -1 -9 5 -25 12
-34 15 -22 7 -24 36 -3 36 8 0 15 -4 15 -10z m100 -46 c0 -8 -7 -14 -15 -14
-15 0 -21 21 -9 33 10 9 24 -2 24 -19z m35 6 c3 -5 1 -10 -4 -10 -6 0 -11 5
-11 10 0 6 2 10 4 10 3 0 8 -4 11 -10z m5 -70 c0 -5 -2 -10 -4 -10 -3 0 -8 5
-11 10 -3 6 -1 10 4 10 6 0 11 -4 11 -10z m45 -220 c3 -5 2 -10 -4 -10 -5 0
-13 5 -16 10 -3 6 -2 10 4 10 5 0 13 -4 16 -10z m-135 -60 c0 -5 -4 -10 -10
-10 -5 0 -10 5 -10 10 0 6 5 10 10 10 6 0 10 -4 10 -10z m-60 -110 c0 -5 -5
-10 -11 -10 -5 0 -7 5 -4 10 3 6 8 10 11 10 2 0 4 -4 4 -10z m165 -60 c10 -11
15 -23 12 -27 -11 -10 -57 15 -57 32 0 21 24 19 45 -5z m-115 -140 c0 -5 -4
-10 -10 -10 -5 0 -10 5 -10 10 0 6 5 10 10 10 6 0 10 -4 10 -10z m115 -60 c3
-5 2 -10 -4 -10 -5 0 -13 5 -16 10 -3 6 -2 10 4 10 5 0 13 -4 16 -10z m-75
-30 c0 -5 -4 -10 -10 -10 -5 0 -10 5 -10 10 0 6 5 10 10 10 6 0 10 -4 10 -10z"/>
<path d="M23265 18039 c-11 -7 -22 -14 -24 -16 -4 -3 -11 -402 -10 -578 0 -27
0 -123 0 -212 0 -115 4 -166 13 -179 11 -14 11 -22 -1 -43 -10 -19 -13 -58
-12 -137 1 -61 0 -115 -3 -120 -10 -17 -1 -148 11 -152 16 -5 13 -29 -5 -36
-22 -8 -20 -10 -44 29 -12 19 -27 35 -33 35 -16 0 -39 38 -31 51 7 12 -39 75
-68 90 -17 9 -23 8 -30 -6 -9 -15 -11 -15 -29 1 -29 26 -23 37 17 31 35 -6 36
-5 29 20 -7 31 -81 146 -141 220 -14 18 -23 36 -20 41 3 5 -15 34 -40 65 -24
31 -44 62 -44 68 0 6 -15 28 -32 49 -18 21 -44 60 -57 87 -14 26 -35 62 -47
78 -12 17 -41 63 -66 103 -33 55 -54 78 -88 96 -45 24 -63 46 -38 46 8 0 19
-5 25 -11 6 -6 13 -7 16 -2 6 9 -32 70 -60 101 -7 7 -13 19 -13 27 0 7 -14 30
-30 51 -17 22 -54 75 -83 119 l-52 80 -150 1 c-161 1 -175 -1 -175 -22 0 -7
-7 -17 -16 -22 -13 -7 -16 -21 -14 -58 1 -27 2 -60 1 -74 -1 -24 -4 -445 -3
-485 1 -11 -1 -199 -4 -419 -4 -363 -3 -400 12 -411 18 -12 10 -40 -7 -29 -13
8 -9 -77 5 -95 8 -11 8 -15 -1 -18 -17 -6 -16 -33 2 -78 13 -30 14 -39 3 -52
-9 -11 -13 -46 -12 -106 l0 -90 110 -3 c60 -2 124 0 143 4 33 7 34 8 16 26
-15 15 -16 19 -4 27 8 5 17 9 20 9 6 0 8 275 8 850 0 140 0 262 0 270 -1 60
12 304 16 308 6 7 55 -41 55 -54 0 -20 72 -124 85 -124 7 0 16 -12 19 -26 4
-14 15 -38 25 -53 10 -14 27 -40 37 -58 62 -103 97 -159 104 -163 5 -3 13 -18
19 -33 6 -15 22 -32 37 -37 17 -7 24 -15 20 -26 -7 -19 8 -45 119 -204 19 -27
35 -53 35 -58 0 -5 8 -17 18 -28 35 -39 108 -151 131 -202 6 -12 22 -27 35
-32 18 -6 23 -14 19 -28 -3 -14 1 -22 16 -27 12 -3 22 -12 22 -18 4 -41 17
-64 40 -70 13 -4 19 -14 19 -33 0 -28 45 -104 61 -104 5 0 9 -9 9 -20 0 -10 6
-23 14 -27 7 -4 17 -21 23 -37 7 -22 16 -30 36 -30 18 -1 27 3 27 14 0 9 3 11
8 4 4 -7 55 -12 130 -13 l122 -2 -1 185 c-2 167 -3 185 -19 189 -22 6 -44 43
-31 52 6 3 15 -4 21 -15 23 -44 31 -18 31 108 0 70 1 375 3 679 1 304 0 556
-3 560 -3 4 -24 16 -45 26 -30 14 -36 21 -25 27 9 6 22 4 37 -6 12 -8 27 -12
33 -9 10 7 7 143 -4 161 -9 15 -217 17 -242 3z m89 -34 c11 -8 17 -17 14 -20
-8 -8 -58 13 -58 25 0 14 22 12 44 -5z m-1354 -37 c0 -5 -9 -4 -20 2 -11 6
-18 15 -14 21 6 11 34 -7 34 -23z m151 16 c11 -14 10 -15 -11 -12 -13 1 -25 9
-28 16 -5 17 23 15 39 -4z m1346 0 c-3 -3 -12 -4 -19 -1 -8 3 -5 6 6 6 11 1
17 -2 13 -5z m-1279 -32 c4 -23 -4 -27 -27 -13 -17 11 -7 45 12 39 6 -3 13
-14 15 -26z m1240 -23 c-2 -6 -8 -10 -13 -10 -5 0 -11 4 -13 10 -2 6 4 11 13
11 9 0 15 -5 13 -11z m-88 -9 c0 -5 -5 -10 -11 -10 -5 0 -7 5 -4 10 3 6 8 10
11 10 2 0 4 -4 4 -10z m48 -23 c2 -10 -3 -17 -12 -17 -10 0 -16 9 -16 21 0 24
23 21 28 -4z m-1202 -4 c19 -25 17 -33 -6 -33 -11 0 -20 4 -20 9 0 5 -3 16 -6
25 -8 22 15 20 32 -1z m1084 -13 c0 -5 -2 -10 -4 -10 -3 0 -8 5 -11 10 -3 6
-1 10 4 10 6 0 11 -4 11 -10z m-1296 -32 c31 -3 33 -9 8 -24 -14 -9 -23 -8
-40 6 -12 10 -22 24 -22 30 0 9 3 10 14 1 7 -6 25 -12 40 -13z m1374 -31 c2
-10 -3 -17 -12 -17 -18 0 -29 16 -21 31 9 14 29 6 33 -14z m122 -8 c0 -6 -4
-7 -10 -4 -5 3 -10 11 -10 16 0 6 5 7 10 4 6 -3 10 -11 10 -16z m-1292 -1 c18
-18 14 -28 -10 -24 -13 1 -24 10 -26 19 -4 20 19 22 36 5z m1192 -53 c0 -8 -7
-15 -15 -15 -16 0 -20 12 -8 23 11 12 23 8 23 -8z m-1266 -43 c-4 -18 -13 -32
-21 -32 -17 0 -30 30 -16 39 5 3 13 15 17 25 11 31 27 4 20 -32z m183 -24 c-3
-8 -6 -5 -6 6 -1 11 2 17 5 13 3 -3 4 -12 1 -19z m109 -25 c-10 -10 -19 5 -10
18 6 11 8 11 12 0 2 -7 1 -15 -2 -18z m-158 -1 c3 -9 -2 -13 -14 -10 -9 1 -19
9 -22 16 -3 9 2 13 14 10 9 -1 19 -9 22 -16z m1157 -62 c3 -5 12 -7 20 -3 9 3
15 -1 15 -11 0 -9 -4 -16 -9 -16 -20 0 -61 20 -61 30 0 13 27 13 35 0z m-1460
-10 c3 -5 -1 -10 -10 -10 -9 0 -13 5 -10 10 3 6 8 10 10 10 2 0 7 -4 10 -10z
m165 -20 c0 -5 -4 -10 -10 -10 -5 0 -10 5 -10 10 0 6 5 10 10 10 6 0 10 -4 10
-10z m-62 -42 c17 -17 15 -38 -3 -38 -12 0 -35 28 -35 44 0 11 26 6 38 -6z
m258 -25 c-10 -10 -19 5 -10 18 6 11 8 11 12 0 2 -7 1 -15 -2 -18z m-175 -66
c-1 -12 -15 -9 -19 4 -3 6 1 10 8 8 6 -3 11 -8 11 -12z m1303 -42 c0 -43 -28
-40 -32 3 -3 28 0 33 14 30 13 -2 18 -12 18 -33z m-996 13 c15 -15 -2 -38 -28
-38 -22 0 -35 31 -18 42 18 11 32 10 46 -4z m82 -18 c0 -5 -5 -10 -11 -10 -5
0 -7 5 -4 10 3 6 8 10 11 10 2 0 4 -4 4 -10z m138 -32 c-6 -18 -28 -21 -28 -4
0 9 7 16 16 16 9 0 14 -5 12 -12z m646 -24 c22 -8 20 -34 -2 -34 -19 0 -42 18
-42 32 0 9 22 10 44 2z m-1134 -34 c0 -11 -4 -20 -9 -20 -14 0 -23 18 -16 30
10 17 25 11 25 -10z m290 10 c13 -9 13 -11 0 -20 -22 -15 -30 -12 -30 10 0 22
8 25 30 10z m-525 -30 c3 -5 -1 -10 -9 -10 -9 0 -16 5 -16 10 0 6 4 10 9 10 6
0 13 -4 16 -10z m775 -11 c0 -6 -4 -7 -10 -4 -5 3 -10 11 -10 16 0 6 5 7 10 4
6 -3 10 -11 10 -16z m-680 -64 c0 -8 -4 -15 -10 -15 -5 0 -10 7 -10 15 0 8 5
15 10 15 6 0 10 -7 10 -15z m1435 -5 c3 -5 -1 -10 -9 -10 -9 0 -16 5 -16 10 0
6 4 10 9 10 6 0 13 -4 16 -10z m-755 -70 c0 -5 -2 -10 -4 -10 -3 0 -8 5 -11
10 -3 6 -1 10 4 10 6 0 11 -4 11 -10z m-580 -20 c0 -5 -4 -10 -10 -10 -5 0
-10 5 -10 10 0 6 5 10 10 10 6 0 10 -4 10 -10z m-158 -15 c0 -5 -5 -11 -11
-13 -6 -2 -11 4 -11 13 0 9 5 15 11 13 6 -2 11 -8 11 -13z m1377 -31 c1 -1 1
-7 0 -13 -2 -5 -15 -1 -29 10 l-25 20 25 -7 c14 -3 27 -8 29 -10z m-1284 -13
c3 -5 1 -12 -5 -16 -5 -3 -10 1 -10 9 0 18 6 21 15 7z m1260 -31 c3 -5 -3 -10
-14 -10 -12 0 -21 5 -21 10 0 6 6 10 14 10 8 0 18 -4 21 -10z m-50 -10 c3 -5
1 -10 -4 -10 -6 0 -11 5 -11 10 0 6 2 10 4 10 3 0 8 -4 11 -10z m185 -30 c0
-5 -4 -10 -10 -10 -5 0 -10 5 -10 10 0 6 5 10 10 10 6 0 10 -4 10 -10z m-1450
-40 c0 -5 -4 -10 -10 -10 -5 0 -10 5 -10 10 0 6 5 10 10 10 6 0 10 -4 10 -10z
m915 -10 c3 -5 1 -10 -4 -10 -6 0 -11 5 -11 10 0 6 2 10 4 10 3 0 8 -4 11 -10z
m379 -143 c7 -11 7 -20 0 -27 -16 -16 -47 11 -38 33 7 21 23 18 38 -6z m132
-25 c-10 -10 -29 15 -21 28 6 9 10 8 17 -4 6 -10 7 -20 4 -24z m-56 2 c0 -17
-22 -14 -28 4 -2 7 3 12 12 12 9 0 16 -7 16 -16z m-1222 -36 c-6 -18 -28 -21
-28 -4 0 9 7 16 16 16 9 0 14 -5 12 -12z m1182 -24 c0 -9 -7 -14 -17 -12 -25
5 -28 28 -4 28 12 0 21 -6 21 -16z m75 -23 c32 -28 35 -41 11 -41 -17 0 -67
50 -61 61 9 14 14 12 50 -20z m-1493 -16 c0 -5 -5 -11 -11 -13 -6 -2 -11 4
-11 13 0 9 5 15 11 13 6 -2 11 -8 11 -13z m1063 -56 c12 -19 -5 -23 -22 -6
-16 16 -16 17 -1 17 9 0 20 -5 23 -11z m318 -19 c15 -7 26 -18 24 -24 -6 -19
-25 -17 -46 5 -20 22 -29 44 -13 37 4 -2 19 -10 35 -18z m-1177 -15 c2 -11 8
-21 13 -23 20 -7 11 -19 -11 -18 -19 1 -23 7 -25 34 -1 35 18 41 23 7z m-60
-32 c-10 -10 -19 5 -10 18 6 11 8 11 12 0 2 -7 1 -15 -2 -18z m1354 -23 c0
-22 -7 -25 -29 -11 -16 10 -6 31 15 31 8 0 14 -9 14 -20z m-464 -11 c19 -22
19 -22 -3 -8 -13 8 -23 17 -23 21 0 12 6 9 26 -13z m444 -39 c0 -5 -4 -10 -10
-10 -5 0 -10 5 -10 10 0 6 5 10 10 10 6 0 10 -4 10 -10z m-1377 -15 c4 -8 2
-17 -3 -20 -13 -8 -40 6 -40 21 0 19 36 18 43 -1z m1247 -32 c0 -19 -3 -24
-10 -17 -6 6 -8 18 -4 27 9 24 14 21 14 -10z m-1190 3 c0 -11 -19 -15 -25 -6
-3 5 1 10 9 10 9 0 16 -2 16 -4z m1050 -26 c0 -5 -7 -10 -15 -10 -8 0 -15 5
-15 10 0 6 7 10 15 10 8 0 15 -4 15 -10z m315 -20 c3 -5 2 -10 -4 -10 -5 0
-13 5 -16 10 -3 6 -2 10 4 10 5 0 13 -4 16 -10z m-1300 -13 c24 -18 11 -41
-16 -27 -10 6 -19 17 -19 25 0 19 11 19 35 2z m964 -35 c3 -1 0 -7 -6 -13 -8
-8 -14 -5 -22 10 -7 12 -18 21 -26 21 -8 0 -15 7 -15 15 0 13 7 11 33 -7 17
-13 34 -24 36 -26z m182 12 c21 -23 22 -26 5 -23 -19 4 -56 49 -39 49 5 0 20
-12 34 -26z m119 1 c0 -8 -4 -15 -9 -15 -13 0 -22 16 -14 24 11 11 23 6 23 -9z
m30 -55 c0 -5 -4 -10 -10 -10 -5 0 -10 5 -10 10 0 6 5 10 10 10 6 0 10 -4 10
-10z m-83 -32 c23 -27 36 -58 24 -58 -19 0 -41 12 -41 22 0 6 -7 16 -17 23 -9
7 -13 17 -9 23 10 17 20 15 43 -10z m-1297 2 c0 -5 -4 -10 -10 -10 -5 0 -10 5
-10 10 0 6 5 10 10 10 6 0 10 -4 10 -10z m-60 -9 c0 -6 -4 -13 -10 -16 -5 -3
-10 1 -10 9 0 9 5 16 10 16 6 0 10 -4 10 -9z m1286 -48 c-6 -7 -56 9 -56 17 0
16 25 17 43 2 9 -8 15 -17 13 -19z m-1206 -13 c0 -5 -7 -10 -16 -10 -8 0 -12
5 -9 10 3 6 10 10 16 10 5 0 9 -4 9 -10z m40 -21 c0 -11 -4 -17 -10 -14 -5 3
-10 13 -10 21 0 8 5 14 10 14 6 0 10 -9 10 -21z m1143 -4 c4 -8 2 -17 -3 -20
-6 -4 -10 3 -10 14 0 25 6 27 13 6z m-1243 -55 c0 -5 -7 -10 -15 -10 -8 0 -15
5 -15 10 0 6 7 10 15 10 8 0 15 -4 15 -10z"/>
<path d="M20280 17200 c0 -5 9 -10 21 -10 11 0 17 5 14 10 -3 6 -13 10 -21 10
-8 0 -14 -4 -14 -10z"/>
<path d="M19362 16454 c-25 -17 -29 -44 -7 -44 8 0 15 -7 15 -15 0 -20 -10
-19 -26 3 -13 16 -15 15 -36 -8 -15 -16 -31 -24 -45 -22 -13 2 -23 -1 -23 -7
0 -6 -9 -11 -21 -11 -17 0 -20 -5 -17 -37 3 -37 5 -38 53 -48 49 -11 50 -12
53 -49 2 -28 9 -40 23 -43 24 -7 25 -19 1 -25 -14 -4 -19 -17 -21 -57 -1 -30
3 -59 10 -67 9 -11 9 -18 1 -26 -16 -16 -15 -61 0 -76 17 -17 83 -15 98 3 16
19 8 207 -9 213 -16 5 -13 22 4 22 23 0 19 56 -7 82 l-22 22 22 14 c24 16 29
54 12 111 -7 24 -6 39 1 48 9 10 7 14 -7 19 -11 4 -22 8 -25 10 -3 2 -15 -4
-27 -12z"/>
<path d="M23767 16313 c-18 -38 -28 -49 -52 -53 -49 -8 -77 -34 -73 -66 3 -29
4 -29 69 -29 64 0 119 -21 119 -45 0 -15 -26 -12 -40 5 -7 8 -16 15 -20 15 -5
0 -8 -69 -9 -154 -1 -168 3 -180 56 -174 32 3 44 38 21 65 -10 13 -10 17 0 20
16 6 16 33 -1 33 -7 0 -23 14 -35 30 -19 25 -21 34 -12 51 14 25 22 19 26 -18
2 -21 22 -48 30 -40 1 1 4 77 5 169 3 157 2 169 -16 182 -19 14 -19 15 -1 22
18 7 18 8 0 21 -30 22 -43 15 -67 -34z m43 -64 c0 -5 -4 -9 -10 -9 -5 0 -10 7
-10 16 0 8 5 12 10 9 6 -3 10 -10 10 -16z m-85 -48 c3 -5 1 -12 -5 -16 -5 -3
-10 1 -10 9 0 18 6 21 15 7z"/>
<path d="M17590 15924 c0 -8 9 -14 19 -14 30 0 34 17 6 22 -17 4 -25 1 -25 -8z"/>
<path d="M18955 15710 c3 -5 16 -10 27 -10 26 0 16 13 -13 17 -12 2 -18 -1
-14 -7z"/>
<path d="M19067 15713 c-12 -11 -8 -21 12 -26 25 -6 34 2 20 20 -13 14 -22 16
-32 6z"/>
<path d="M19178 15693 c7 -3 16 -2 19 1 4 3 -2 6 -13 5 -11 0 -14 -3 -6 -6z"/>
<path d="M13787 18998 c-4 -15 -4 -128 0 -250 3 -123 6 -232 5 -243 -6 -81 -7
-702 -1 -670 5 22 11 165 14 318 4 207 10 294 21 335 9 32 15 62 15 67 -1 6
-5 69 -9 140 -4 72 -12 137 -17 144 -4 8 -11 53 -14 100 -5 63 -8 79 -14 59z"/>
<path d="M11897 18063 c-3 -4 -62 -8 -133 -7 -105 1 -136 -2 -178 -19 -28 -11
-61 -20 -73 -19 -13 0 -23 -8 -27 -20 -3 -15 -11 -19 -25 -15 -12 3 -21 2 -21
-2 0 -4 -12 -12 -27 -19 -57 -26 -82 -43 -88 -62 -4 -11 -13 -20 -21 -20 -8 0
-14 -7 -14 -15 0 -8 -7 -15 -15 -15 -9 0 -20 -11 -25 -24 -5 -13 -14 -27 -20
-31 -15 -9 -60 -100 -60 -122 0 -10 -7 -27 -15 -37 -8 -11 -15 -34 -15 -51 0
-18 -3 -34 -6 -38 -13 -13 -3 -211 12 -241 8 -16 14 -35 14 -43 0 -8 11 -25
25 -39 14 -14 25 -32 25 -40 0 -18 99 -114 118 -114 6 0 12 -4 12 -10 0 -5 7
-10 15 -10 9 0 28 -9 43 -20 15 -11 36 -21 47 -23 11 -1 39 -12 62 -24 22 -12
43 -19 46 -17 3 3 16 -1 29 -9 12 -8 48 -15 78 -16 30 -1 57 -6 60 -10 3 -5
29 -9 58 -10 29 0 59 -4 65 -8 7 -5 37 -13 67 -20 188 -41 270 -61 304 -76 21
-9 42 -17 47 -17 5 0 27 -16 48 -36 45 -40 81 -133 81 -209 0 -58 -50 -159
-88 -177 -15 -7 -32 -23 -38 -36 -16 -33 -22 -36 -39 -22 -10 8 -15 9 -15 1 0
-6 -9 -11 -19 -11 -11 0 -23 -5 -27 -11 -3 -6 -15 -9 -25 -6 -10 3 -22 1 -25
-4 -3 -5 -10 -7 -15 -3 -5 3 -17 0 -25 -7 -17 -14 -304 -22 -304 -8 0 5 -18 9
-39 9 -22 0 -42 4 -46 9 -3 6 -25 13 -49 16 -28 5 -55 18 -76 37 -25 22 -35
26 -41 17 -4 -8 -11 -10 -16 -6 -4 5 -1 13 7 18 13 9 12 12 -4 22 -41 25 -66
62 -95 136 -19 49 -27 87 -24 107 8 55 -10 74 -70 74 -29 0 -58 -5 -64 -11 -6
-6 -17 -8 -24 -3 -12 7 -56 9 -76 4 -5 -1 -18 -1 -30 -1 -11 1 -24 -3 -28 -10
-13 -20 -12 -92 3 -154 7 -33 17 -76 22 -95 10 -48 20 -70 31 -70 5 0 9 -10 9
-22 0 -45 162 -204 220 -216 8 -2 24 -12 36 -23 11 -10 26 -19 32 -19 7 0 12
-5 12 -12 0 -6 3 -8 7 -5 3 4 12 2 20 -5 7 -6 16 -8 19 -5 4 3 36 -5 73 -17
36 -13 75 -24 86 -24 11 0 39 -5 63 -10 26 -6 45 -6 48 0 3 5 11 5 18 -1 7 -6
15 -9 17 -6 3 2 49 6 104 9 177 10 234 17 246 32 10 12 15 12 31 -3 18 -16 19
-16 24 5 5 17 11 20 34 16 20 -5 33 0 49 17 11 12 21 19 21 15 0 -5 6 -3 14 3
7 6 20 9 28 6 9 -3 29 5 46 19 16 15 36 26 44 26 14 0 90 58 97 74 2 4 14 18
27 29 13 11 24 29 24 39 0 10 4 18 9 18 5 0 11 8 15 18 3 9 10 24 15 32 13 21
39 216 36 270 -4 73 -22 166 -39 199 -9 16 -16 35 -16 41 0 6 -9 21 -21 33
-11 12 -29 38 -39 57 -11 21 -34 44 -56 55 -20 11 -47 29 -60 40 -13 11 -33
29 -46 40 -15 13 -40 21 -73 23 -27 1 -54 8 -60 16 -5 7 -17 13 -25 14 -38 4
-86 15 -95 23 -10 8 -22 9 -85 9 -14 0 -35 4 -47 10 -59 26 -71 30 -119 33
-28 2 -56 7 -63 11 -14 9 -55 17 -86 17 -11 0 -23 5 -26 11 -6 9 -11 9 -21 0
-8 -6 -19 -7 -28 -2 -8 5 -18 7 -22 4 -4 -3 -18 1 -30 8 -13 7 -35 13 -50 13
-28 1 -55 24 -102 87 -22 30 -28 48 -29 100 -1 52 4 73 29 124 34 67 87 124
115 124 11 0 19 6 19 13 0 13 100 47 138 47 10 0 22 3 25 7 15 14 163 8 225
-10 35 -10 69 -16 75 -14 7 3 23 -5 37 -18 14 -12 41 -28 60 -36 19 -7 46 -27
60 -43 23 -26 35 -47 76 -128 8 -14 14 -47 14 -71 0 -25 5 -49 11 -53 15 -9
215 -15 252 -8 25 5 27 9 27 59 0 66 -40 221 -76 291 -28 55 -80 116 -107 127
-9 3 -26 21 -38 39 -21 33 -49 48 -174 99 -19 7 -58 14 -150 23 -41 5 -80 11
-126 22 -15 3 -29 2 -32 -3z m-367 -249 c0 -8 -4 -12 -10 -9 -5 3 -10 10 -10
16 0 5 5 9 10 9 6 0 10 -7 10 -16z m695 -693 c3 -5 1 -12 -5 -16 -5 -3 -10 1
-10 9 0 18 6 21 15 7z m-511 -16 c3 -8 1 -15 -4 -15 -6 0 -10 7 -10 15 0 8 2
15 4 15 2 0 6 -7 10 -15z m-503 -518 c-1 -12 -15 -9 -19 4 -3 6 1 10 8 8 6 -3
11 -8 11 -12z m1224 -47 c8 -13 -5 -13 -25 0 -13 8 -13 10 2 10 9 0 20 -4 23
-10z m-1185 -30 c0 -5 -2 -10 -4 -10 -3 0 -8 5 -11 10 -3 6 -1 10 4 10 6 0 11
-4 11 -10z m30 -60 c0 -5 -2 -10 -4 -10 -3 0 -8 5 -11 10 -3 6 -1 10 4 10 6 0
11 -4 11 -10z"/>
<path d="M14864 18009 c-2 -4 -13 -5 -23 -2 -10 3 -22 0 -25 -6 -13 -21 -4
-1901 9 -1933 9 -23 45 -24 45 -1 0 15 2 15 18 1 9 -9 37 -18 62 -20 42 -3 45
-1 42 20 -2 12 2 22 7 22 6 0 11 -9 11 -20 0 -19 5 -21 58 -18 l57 3 2 145 c5
277 10 515 11 532 2 19 96 114 147 150 19 12 40 33 46 45 7 13 18 23 26 23 7
0 13 4 13 10 0 5 12 17 26 26 20 14 27 15 34 5 4 -7 18 -18 31 -25 16 -8 23
-19 21 -33 -2 -16 47 -90 77 -113 3 -3 15 -23 26 -45 10 -22 33 -58 50 -80 48
-63 85 -120 85 -132 0 -6 6 -13 13 -16 7 -3 26 -24 42 -48 17 -24 36 -48 42
-52 7 -4 13 -15 13 -22 0 -8 5 -15 10 -15 6 0 10 -7 10 -15 0 -8 10 -25 22
-37 12 -12 48 -61 80 -108 118 -174 131 -190 153 -196 13 -3 68 -3 122 0 97 7
136 7 201 2 33 -3 60 23 34 32 -7 2 -12 11 -12 19 0 17 -41 75 -97 141 -18 20
-33 42 -33 47 0 6 -12 21 -27 35 -14 14 -38 43 -52 65 -14 22 -29 42 -32 45
-3 3 -26 34 -50 68 -70 102 -73 106 -89 124 -23 26 -46 57 -89 122 -22 32 -55
76 -75 98 -20 21 -36 43 -36 48 0 14 -89 133 -106 143 -8 4 -14 13 -14 19 0 7
-10 22 -21 34 -22 23 -27 31 -62 94 -19 32 -19 33 4 64 13 17 32 38 44 47 23
19 134 125 246 235 41 41 81 74 87 74 7 0 12 9 12 20 0 11 5 20 12 20 6 0 24
15 40 33 16 17 32 32 36 32 12 0 172 162 172 173 0 6 14 16 30 24 17 7 33 20
35 29 3 9 17 21 31 28 15 7 24 18 22 28 -3 14 -27 16 -212 17 l-208 1 -124
-123 c-68 -68 -124 -127 -124 -131 0 -4 -11 -14 -25 -21 -13 -7 -27 -20 -30
-29 -3 -9 -30 -36 -60 -61 -29 -25 -54 -53 -54 -63 -1 -10 -11 -21 -24 -26
-13 -5 -53 -40 -88 -77 -35 -37 -75 -77 -88 -88 -53 -45 -81 -74 -81 -81 0
-11 -147 -152 -165 -159 -18 -7 -25 15 -25 85 0 33 -4 59 -10 59 -5 0 -10 9
-10 20 0 11 5 20 10 20 16 0 9 642 -8 662 -7 10 -25 15 -45 13 -17 -2 -32 -4
-32 -5 0 -1 -10 -3 -22 -6 -13 -2 -23 0 -23 5 0 11 -119 10 -126 0z m-24 -214
c0 -8 -4 -15 -10 -15 -5 0 -10 7 -10 15 0 8 5 15 10 15 6 0 10 -7 10 -15z m56
-1 c-3 -9 -6 -20 -6 -25 0 -6 -4 -7 -10 -4 -16 10 -12 45 6 45 11 0 14 -5 10
-16z m964 -44 c0 -5 -2 -10 -4 -10 -3 0 -8 5 -11 10 -3 6 -1 10 4 10 6 0 11
-4 11 -10z m-940 -71 c0 -5 -4 -9 -10 -9 -5 0 -10 7 -10 16 0 8 5 12 10 9 6
-3 10 -10 10 -16z m60 -39 c0 -5 -4 -10 -10 -10 -5 0 -10 5 -10 10 0 6 5 10
10 10 6 0 10 -4 10 -10z m40 -54 c0 -3 -4 -8 -10 -11 -5 -3 -10 -1 -10 4 0 6
5 11 10 11 6 0 10 -2 10 -4z m80 -57 c0 -5 -4 -9 -10 -9 -5 0 -10 7 -10 16 0
8 5 12 10 9 6 -3 10 -10 10 -16z m665 -29 c3 -5 1 -10 -4 -10 -6 0 -11 5 -11
10 0 6 2 10 4 10 3 0 8 -4 11 -10z m-243 -205 c0 -5 -5 -11 -11 -13 -6 -2 -11
4 -11 13 0 9 5 15 11 13 6 -2 11 -8 11 -13z m158 -5 c0 -5 -4 -10 -10 -10 -5
0 -10 5 -10 10 0 6 5 10 10 10 6 0 10 -4 10 -10z m-390 -35 c0 -8 -4 -15 -10
-15 -5 0 -7 7 -4 15 4 8 8 15 10 15 2 0 4 -7 4 -15z m-5 -115 l6 -25 -20 25
c-24 30 -30 64 -7 40 8 -8 17 -26 21 -40z m335 -21 c0 -5 -4 -9 -10 -9 -5 0
-10 7 -10 16 0 8 5 12 10 9 6 -3 10 -10 10 -16z m-85 -98 c3 -5 1 -12 -5 -16
-5 -3 -10 1 -10 9 0 18 6 21 15 7z m-330 -62 c11 -17 0 -20 -21 -4 -17 13 -17
14 -2 15 9 0 20 -5 23 -11z m40 -29 c3 -5 1 -10 -4 -10 -6 0 -11 5 -11 10 0 6
2 10 4 10 3 0 8 -4 11 -10z m-170 -70 c3 -5 -1 -10 -10 -10 -9 0 -13 5 -10 10
3 6 8 10 10 10 2 0 7 -4 10 -10z m-125 -10 c0 -5 -4 -10 -10 -10 -5 0 -10 5
-10 10 0 6 5 10 10 10 6 0 10 -4 10 -10z m-100 -60 c0 -5 -4 -10 -10 -10 -5 0
-10 5 -10 10 0 6 5 10 10 10 6 0 10 -4 10 -10z m184 -35 c3 -9 0 -15 -9 -15
-8 0 -15 7 -15 15 0 8 4 15 9 15 5 0 11 -7 15 -15z m696 -5 c0 -5 -4 -10 -10
-10 -5 0 -10 5 -10 10 0 6 5 10 10 10 6 0 10 -4 10 -10z m-840 -155 c0 -9 -9
-15 -22 -15 -22 1 -23 1 -4 15 25 19 26 19 26 0z m200 -5 c0 -5 -4 -10 -10
-10 -5 0 -10 5 -10 10 0 6 5 10 10 10 6 0 10 -4 10 -10z m-160 -30 c0 -5 -4
-10 -10 -10 -5 0 -10 5 -10 10 0 6 5 10 10 10 6 0 10 -4 10 -10z m1146 -108
c-22 -5 -30 3 -21 18 5 8 11 7 22 -2 15 -12 14 -13 -1 -16z m-1088 -55 c2 -10
-3 -17 -12 -17 -10 0 -16 9 -16 21 0 24 23 21 28 -4z m1187 -7 c3 -5 1 -10 -4
-10 -6 0 -11 5 -11 10 0 6 2 10 4 10 3 0 8 -4 11 -10z m-15 -95 c0 -8 -4 -15
-10 -15 -5 0 -10 7 -10 15 0 8 5 15 10 15 6 0 10 -7 10 -15z m-1263 -31 c-9
-9 -28 6 -21 18 4 6 10 6 17 -1 6 -6 8 -13 4 -17z m1396 -38 c6 -15 -1 -26
-15 -26 -4 0 -8 9 -8 20 0 23 15 27 23 6z m-1358 -26 c3 -5 1 -10 -4 -10 -6 0
-11 5 -11 10 0 6 2 10 4 10 3 0 8 -4 11 -10z"/>
<path d="M13793 17560 c0 -142 3 -215 7 -185 10 65 10 250 1 345 -6 53 -8 7
-8 -160z"/>
<path d="M13007 16323 c-3 -5 -8 -22 -11 -40 -7 -31 -24 -41 -84 -49 -36 -4
-51 -23 -50 -60 2 -42 18 -52 76 -49 23 2 45 -2 49 -9 7 -11 8 -35 11 -237 2
-94 3 -97 27 -103 14 -4 37 -3 52 0 l26 7 -7 266 c-3 146 -10 269 -16 275 -6
6 -15 5 -24 -3 -10 -8 -16 -9 -21 -1 -7 12 -22 13 -28 3z m63 -484 c0 -6 -4
-7 -10 -4 -5 3 -10 11 -10 16 0 6 5 7 10 4 6 -3 10 -11 10 -16z"/>
<path d="M16528 16273 c-1 -21 -1 -49 0 -62 1 -13 -3 -32 -8 -41 -13 -23 -23
-157 -13 -163 4 -3 23 -8 41 -12 26 -5 32 -3 32 10 0 9 6 15 13 13 6 -1 23 4
36 11 14 8 36 10 58 6 27 -5 38 -13 49 -42 11 -25 12 -39 5 -46 -6 -6 -11 -19
-11 -28 0 -21 -37 -44 -70 -43 -62 2 -70 4 -70 22 0 10 -7 28 -16 40 -13 19
-24 22 -57 20 l-42 -3 3 -40 c8 -96 73 -143 198 -140 59 2 79 6 86 18 5 10 18
17 29 17 11 0 22 8 26 18 3 9 13 25 22 35 9 11 16 41 17 78 3 73 -21 137 -63
166 -40 29 -130 56 -158 49 -26 -7 -31 0 -16 23 6 9 20 12 40 9 26 -4 31 -2
25 11 -3 9 -9 25 -12 36 -5 18 -4 19 14 5 10 -8 27 -23 38 -32 10 -10 24 -14
30 -11 6 4 24 7 41 8 28 0 30 3 33 42 2 32 -1 44 -15 51 -25 13 -175 14 -209
2 -19 -8 -30 -8 -38 0 -21 21 -36 10 -38 -27z m272 -414 c0 -5 -4 -9 -10 -9
-5 0 -10 7 -10 16 0 8 5 12 10 9 6 -3 10 -10 10 -16z m-230 -39 c0 -5 -5 -10
-11 -10 -5 0 -7 5 -4 10 3 6 8 10 11 10 2 0 4 -4 4 -10z"/>
<path d="M7783 9943 c9 -2 25 -2 35 0 9 3 1 5 -18 5 -19 0 -27 -2 -17 -5z"/>
<path d="M11365 9930 c-3 -5 3 -10 14 -10 12 0 21 5 21 10 0 6 -6 10 -14 10
-8 0 -18 -4 -21 -10z"/>
<path d="M12572 9928 c-22 -8 -26 -8 201 -14 111 -3 184 -1 195 5 13 8 0 11
-53 12 -165 5 -327 4 -343 -3z"/>
<path d="M13550 9930 c-12 -8 -9 -10 13 -10 15 0 27 5 27 10 0 13 -20 13 -40
0z"/>
<path d="M12424 9921 c6 -9 103 -7 113 3 4 3 -22 6 -56 6 -34 0 -60 -4 -57 -9z"/>
<path d="M13050 9920 c-10 -7 24 -10 109 -10 68 0 122 2 120 5 -11 10 -215 15
-229 5z"/>
<path d="M13380 9920 c-12 -7 -8 -10 15 -10 17 0 37 5 45 10 12 7 8 10 -15 10
-16 0 -37 -5 -45 -10z"/>
<path d="M18288 9883 c6 -2 18 -2 25 0 6 3 1 5 -13 5 -14 0 -19 -2 -12 -5z"/>
<path d="M18690 9880 c0 -6 7 -10 15 -10 8 0 15 2 15 4 0 2 -7 6 -15 10 -8 3
-15 1 -15 -4z"/>
<path d="M18788 9883 c7 -3 16 -2 19 1 4 3 -2 6 -13 5 -11 0 -14 -3 -6 -6z"/>
<path d="M19015 9880 c3 -5 10 -10 16 -10 5 0 9 5 9 10 0 6 -7 10 -16 10 -8 0
-12 -4 -9 -10z"/>
<path d="M19088 9883 c6 -2 18 -2 25 0 6 3 1 5 -13 5 -14 0 -19 -2 -12 -5z"/>
<path d="M19560 9880 c0 -11 96 -7 107 4 4 3 -19 6 -50 6 -32 0 -57 -4 -57
-10z"/>
<path d="M20098 9883 c7 -3 16 -2 19 1 4 3 -2 6 -13 5 -11 0 -14 -3 -6 -6z"/>
<path d="M20158 9883 c6 -2 18 -2 25 0 6 3 1 5 -13 5 -14 0 -19 -2 -12 -5z"/>
<path d="M10103 9590 c0 -36 2 -50 4 -32 2 17 2 47 0 65 -2 17 -4 3 -4 -33z"/>
<path d="M10095 9371 c-3 -5 -1 -12 5 -16 5 -3 10 1 10 9 0 18 -6 21 -15 7z"/>
<path d="M10090 9221 c0 -6 5 -13 10 -16 6 -3 10 1 10 9 0 9 -4 16 -10 16 -5
0 -10 -4 -10 -9z"/>
<path d="M10099 9138 c-6 -14 -5 -197 1 -212 6 -13 9 23 9 97 1 97 -2 132 -10
115z"/>
<path d="M8032 8907 c-5 -4 -39 -11 -78 -16 -79 -10 -114 -22 -133 -45 -7 -9
-24 -16 -36 -16 -26 0 -214 -136 -238 -172 -8 -13 -24 -34 -36 -48 -11 -14
-24 -30 -29 -35 -26 -31 -94 -154 -99 -178 -3 -15 -10 -30 -14 -33 -5 -3 -9
-13 -9 -22 0 -9 -6 -29 -14 -43 -15 -29 -40 -136 -56 -241 -14 -88 -13 -243 1
-348 6 -47 11 -92 11 -100 0 -14 21 -82 38 -125 5 -11 18 -50 29 -87 11 -38
36 -88 55 -114 20 -26 36 -55 36 -65 0 -23 139 -162 184 -183 19 -9 36 -20 38
-24 6 -14 84 -49 158 -72 41 -12 80 -26 85 -30 17 -13 134 -23 280 -24 137 -1
168 4 268 40 20 8 48 14 61 14 13 0 35 10 50 21 15 12 49 30 75 40 46 17 59
26 142 97 45 39 148 187 175 252 4 8 17 38 29 65 13 28 23 64 22 80 0 17 5 41
10 55 13 33 23 109 15 114 -23 14 -273 23 -293 11 -5 -4 -9 -18 -9 -32 0 -30
-16 -86 -36 -125 -8 -14 -14 -32 -14 -38 0 -7 -17 -40 -38 -74 -21 -34 -41
-69 -45 -78 -3 -10 -34 -38 -69 -62 -35 -25 -70 -51 -78 -58 -9 -8 -63 -26
-120 -41 -87 -22 -120 -25 -190 -21 -47 3 -89 9 -94 14 -6 6 -18 10 -29 10
-10 0 -43 11 -73 25 -30 14 -59 25 -64 25 -6 0 -10 5 -10 10 0 6 -7 10 -16 10
-27 0 -149 130 -164 175 -7 22 -16 42 -20 45 -11 8 -30 71 -30 98 0 14 -7 33
-15 42 -16 18 -22 50 -31 165 -3 39 -9 83 -13 100 -4 16 -4 52 0 80 4 27 12
88 18 134 6 46 15 89 20 95 4 6 12 29 16 51 8 45 53 132 93 182 15 18 38 46
50 63 13 17 46 45 73 63 27 17 49 35 49 39 0 4 17 10 38 14 20 4 46 11 57 17
11 6 65 18 120 28 91 17 108 17 190 4 49 -8 107 -20 127 -28 49 -17 144 -86
159 -114 7 -13 17 -23 22 -23 18 0 46 -47 68 -115 34 -108 20 -100 160 -102
147 -1 163 4 156 55 -3 21 -9 62 -13 92 -4 30 -15 67 -26 82 -11 16 -17 32
-13 37 3 6 -10 25 -29 44 -25 26 -31 38 -23 46 8 8 7 11 -6 11 -9 0 -17 4 -17
10 0 11 -30 48 -70 87 -49 48 -201 135 -258 148 -17 3 -33 12 -36 20 -3 8 -13
11 -25 8 -11 -3 -29 -2 -38 3 -10 4 -31 10 -48 12 -53 8 -376 7 -383 -1z"/>
<path d="M19138 8855 c-4 -4 -60 -9 -230 -18 -16 -1 -28 -5 -28 -8 0 -4 -20
-5 -45 -4 -25 2 -47 -1 -51 -6 -3 -5 -16 -9 -30 -9 -14 0 -36 -11 -50 -25 -14
-14 -36 -25 -49 -25 -52 0 -273 -201 -330 -300 -37 -66 -77 -157 -87 -201 -7
-28 -17 -49 -25 -49 -9 0 -13 -14 -13 -41 0 -22 -5 -49 -10 -59 -26 -48 -41
-379 -19 -406 5 -7 9 -16 7 -20 -4 -17 14 -169 24 -209 7 -22 17 -47 25 -56 7
-8 13 -22 13 -29 0 -26 43 -145 57 -156 7 -6 13 -19 13 -28 0 -9 7 -19 15 -22
8 -3 19 -21 25 -40 6 -19 16 -34 21 -34 5 0 9 -7 9 -15 0 -8 3 -15 8 -15 4 0
18 -10 32 -23 67 -60 145 -118 168 -123 15 -4 36 -14 47 -24 11 -9 43 -23 70
-30 28 -7 55 -17 61 -22 7 -5 16 -8 20 -6 5 1 36 -6 69 -17 40 -12 101 -19
184 -21 68 -2 126 -6 129 -9 2 -2 17 2 33 10 15 8 40 15 54 15 14 0 36 6 48
14 12 8 40 14 62 14 42 1 132 40 155 67 7 8 23 15 35 15 13 0 40 15 60 33 70
62 155 151 155 162 0 7 7 18 15 25 17 14 105 193 105 214 0 8 4 17 8 20 4 2 9
24 11 47 1 23 6 50 11 60 11 20 13 69 4 92 -4 12 -31 15 -144 16 l-138 2 -7
-28 c-4 -15 -9 -37 -10 -48 -2 -11 -12 -45 -24 -75 -12 -30 -21 -65 -21 -77 0
-13 -4 -23 -9 -23 -5 0 -27 -29 -49 -64 -24 -36 -63 -80 -94 -104 -29 -22 -62
-48 -72 -58 -10 -9 -33 -17 -50 -18 -17 -1 -47 -9 -66 -18 -49 -24 -113 -39
-120 -29 -3 5 -39 9 -80 10 -48 1 -79 6 -85 15 -7 8 -19 10 -37 5 -20 -5 -32
-2 -48 13 -12 11 -24 18 -27 15 -2 -3 -13 2 -23 11 -11 8 -29 17 -41 19 -42 6
-142 97 -170 155 -69 139 -86 181 -100 243 -12 49 -29 211 -30 270 0 133 45
356 85 417 9 13 13 27 10 31 -13 13 151 197 176 197 5 0 15 8 22 18 7 10 29
24 48 31 19 7 44 17 55 21 25 11 60 18 157 34 62 10 91 10 155 0 153 -25 202
-48 294 -135 52 -50 72 -85 104 -179 l22 -65 137 -1 c152 -1 166 4 148 53 -5
16 -10 37 -10 48 -1 64 -48 179 -98 241 -19 23 -34 45 -34 49 0 13 -94 110
-104 107 -5 -2 -21 8 -35 21 -14 14 -41 28 -58 32 -19 4 -33 13 -33 21 0 8
-10 14 -24 14 -14 0 -28 5 -31 10 -4 6 -12 10 -18 9 -7 -1 -19 1 -27 4 -8 4
-24 8 -35 10 -11 1 -26 6 -32 10 -7 5 -17 5 -23 2 -5 -3 -10 -2 -10 3 0 5 -21
10 -47 11 -27 0 -64 5 -83 11 -40 11 -45 12 -52 5z m-28 -46 c0 -5 -4 -9 -10
-9 -5 0 -10 7 -10 16 0 8 5 12 10 9 6 -3 10 -10 10 -16z m40 -29 c0 -5 -5 -10
-11 -10 -5 0 -7 5 -4 10 3 6 8 10 11 10 2 0 4 -4 4 -10z m686 -487 c-10 -10
-19 5 -10 18 6 11 8 11 12 0 2 -7 1 -15 -2 -18z m-1373 -68 c-3 -8 -9 -15 -14
-15 -10 0 -12 24 -3 33 11 11 24 -3 17 -18z m1102 -1005 c3 -5 1 -10 -4 -10
-6 0 -11 5 -11 10 0 6 2 10 4 10 3 0 8 -4 11 -10z m-145 -190 c0 -5 -2 -10 -4
-10 -3 0 -8 5 -11 10 -3 6 -1 10 4 10 6 0 11 -4 11 -10z m-120 -110 c0 -5 -4
-10 -10 -10 -5 0 -10 5 -10 10 0 6 5 10 10 10 6 0 10 -4 10 -10z m-390 -29 c0
-6 -4 -13 -10 -16 -5 -3 -10 1 -10 9 0 9 5 16 10 16 6 0 10 -4 10 -9z"/>
<path d="M14622 8786 c-34 -17 -41 -36 -35 -94 4 -37 12 -63 24 -75 26 -24 25
-41 -1 -27 -19 10 -21 8 -21 -27 0 -21 -1 -78 -2 -128 -1 -49 2 -96 7 -102 5
-8 4 -18 -1 -25 -5 -7 -11 -75 -12 -152 -2 -118 0 -141 15 -157 15 -17 15 -19
1 -19 -14 0 -16 -27 -16 -237 -1 -131 -4 -313 -7 -405 -4 -133 -3 -168 7 -168
10 0 10 -3 1 -12 -8 -8 -12 -59 -12 -165 0 -152 0 -153 23 -154 82 -6 268 -5
272 1 10 16 16 91 14 190 -1 58 -1 121 -1 140 1 19 2 135 3 257 2 197 4 221
18 216 12 -4 13 -3 3 5 -10 7 -14 59 -15 220 -1 117 -6 212 -11 212 -5 0 -4 6
2 13 6 6 11 53 13 102 4 127 6 133 35 93 13 -17 24 -37 24 -43 0 -6 14 -25 30
-43 17 -18 30 -40 30 -49 0 -8 9 -17 20 -20 13 -3 22 -17 26 -39 3 -19 10 -34
15 -34 8 0 33 -40 45 -72 3 -10 10 -18 15 -18 5 0 9 -4 9 -9 0 -5 18 -38 40
-72 67 -108 81 -137 67 -142 -7 -3 -5 -6 6 -6 9 -1 17 -7 17 -15 0 -8 11 -17
24 -20 18 -4 22 -11 19 -29 -3 -14 2 -31 11 -40 9 -8 16 -19 16 -24 0 -4 14
-21 31 -37 16 -17 44 -60 63 -96 18 -36 38 -64 43 -63 6 2 14 -10 18 -26 4
-17 10 -33 15 -36 5 -3 18 -26 31 -53 12 -26 29 -51 36 -55 7 -4 13 -15 13
-22 0 -8 4 -15 9 -15 9 0 111 -163 111 -178 0 -4 16 -27 36 -52 20 -25 40 -54
45 -65 5 -11 20 -38 32 -60 l22 -40 146 -2 c80 0 151 2 157 6 18 11 27 941 10
941 -10 0 -10 2 0 8 10 7 13 113 15 507 l2 498 -29 10 c-20 7 -35 6 -48 -2
-10 -6 -18 -8 -18 -3 0 4 -26 6 -57 5 -92 -5 -97 -5 -112 -2 -7 2 -15 -5 -17
-16 -6 -33 -5 -322 2 -339 3 -9 2 -16 -3 -16 -4 0 -9 -154 -10 -342 -3 -439
-9 -684 -17 -697 -4 -6 -2 -11 3 -11 6 0 11 -7 11 -15 0 -26 -27 -16 -40 15
-7 17 -16 30 -21 30 -5 0 -9 6 -9 14 0 8 -7 16 -15 20 -8 3 -12 12 -9 21 3 8
2 15 -4 15 -6 0 -22 24 -36 53 -14 28 -25 48 -26 42 0 -5 -16 22 -37 60 -20
39 -42 74 -50 78 -7 5 -11 12 -8 17 3 5 -8 23 -25 41 -16 18 -39 51 -50 74
-11 22 -38 67 -59 100 -22 33 -61 96 -87 140 -26 44 -51 82 -56 83 -4 2 -8 8
-8 13 0 6 -5 15 -11 22 -15 17 -54 83 -81 139 -13 26 -31 49 -41 51 -11 4 -15
11 -11 22 6 14 3 16 -17 10 -18 -6 -21 -4 -13 5 12 12 -3 70 -18 70 -4 0 -8 6
-8 14 0 7 -7 19 -15 26 -8 7 -15 20 -15 29 0 10 -13 30 -30 46 -16 16 -30 34
-30 42 0 7 -9 17 -20 23 -14 8 -19 17 -15 30 3 11 0 22 -8 27 -7 4 -22 23 -33
41 -16 28 -24 33 -54 32 -19 -1 -37 -1 -40 0 -17 7 -244 3 -258 -4z m268 -30
c0 -3 -4 -8 -10 -11 -5 -3 -10 -1 -10 4 0 6 5 11 10 11 6 0 10 -2 10 -4z
m1210 -38 c0 -13 -23 -5 -28 10 -2 7 2 10 12 6 9 -3 16 -11 16 -16z m-1420 -9
c0 -6 -4 -7 -10 -4 -5 3 -10 11 -10 16 0 6 5 7 10 4 6 -3 10 -11 10 -16z
m1330 -29 c0 -5 -4 -10 -10 -10 -5 0 -10 5 -10 10 0 6 5 10 10 10 6 0 10 -4
10 -10z m-1215 -30 c3 -5 2 -10 -4 -10 -5 0 -13 5 -16 10 -3 6 -2 10 4 10 5 0
13 -4 16 -10z m35 -15 c0 -8 -4 -15 -10 -15 -5 0 -10 7 -10 15 0 8 5 15 10 15
6 0 10 -7 10 -15z m45 -25 c3 -5 1 -10 -4 -10 -6 0 -11 5 -11 10 0 6 2 10 4
10 3 0 8 -4 11 -10z m-215 -30 c0 -5 -4 -10 -10 -10 -5 0 -10 5 -10 10 0 6 5
10 10 10 6 0 10 -4 10 -10z m168 -8 c2 -7 -2 -10 -12 -6 -9 3 -16 11 -16 16 0
13 23 5 28 -10z m-48 -42 c0 -5 -4 -10 -10 -10 -5 0 -10 5 -10 10 0 6 5 10 10
10 6 0 10 -4 10 -10z m80 -40 c0 -5 -7 -10 -15 -10 -8 0 -15 5 -15 10 0 6 7
10 15 10 8 0 15 -4 15 -10z m-80 -70 c0 -5 -2 -10 -4 -10 -3 0 -8 5 -11 10 -3
6 -1 10 4 10 6 0 11 -4 11 -10z m-42 -18 c2 -7 -3 -12 -12 -12 -9 0 -16 7 -16
16 0 17 22 14 28 -4z m119 3 c9 -25 -4 -29 -17 -6 -7 15 -7 21 0 21 6 0 13 -7
17 -15z m1128 -215 c3 -5 -1 -10 -9 -10 -9 0 -16 5 -16 10 0 6 4 10 9 10 6 0
13 -4 16 -10z m-885 -40 c0 -5 -2 -10 -4 -10 -3 0 -8 5 -11 10 -3 6 -1 10 4
10 6 0 11 -4 11 -10z m225 -171 c11 -17 -1 -21 -15 -4 -8 9 -8 15 -2 15 6 0
14 -5 17 -11z m-505 -89 c0 -5 -4 -10 -10 -10 -5 0 -10 5 -10 10 0 6 5 10 10
10 6 0 10 -4 10 -10z m41 -40 c5 0 9 -4 9 -10 0 -12 -27 -13 -34 -1 -4 5 -3
17 1 28 7 17 8 17 11 1 2 -10 8 -18 13 -18z m482 -134 c4 -10 1 -13 -9 -9 -15
6 -19 23 -5 23 5 0 11 -7 14 -14z m731 -291 c3 -9 0 -15 -9 -15 -16 0 -27 14
-18 24 10 10 21 7 27 -9z m46 -35 c0 -5 -4 -10 -10 -10 -5 0 -10 5 -10 10 0 6
5 10 10 10 6 0 10 -4 10 -10z m-212 -478 c2 -7 -2 -10 -12 -6 -9 3 -16 11 -16
16 0 13 23 5 28 -10z m212 -66 c0 -3 -4 -8 -10 -11 -5 -3 -10 -1 -10 4 0 6 5
11 10 11 6 0 10 -2 10 -4z"/>
<path d="M11630 8776 c-6 -6 -10 -16 -10 -23 0 -7 -4 -21 -9 -31 -5 -9 -14
-30 -21 -47 -7 -16 -16 -38 -21 -47 -5 -10 -9 -26 -9 -37 0 -10 -7 -24 -15
-31 -8 -7 -15 -23 -15 -35 0 -12 -7 -28 -15 -35 -8 -7 -15 -24 -15 -37 0 -22
-16 -67 -40 -113 -4 -9 -11 -30 -15 -48 -3 -17 -14 -36 -23 -42 -9 -5 -14 -10
-10 -10 4 0 2 -17 -6 -37 -7 -21 -19 -57 -26 -80 -7 -23 -18 -44 -25 -47 -7
-2 -16 -21 -19 -41 -7 -34 -72 -211 -129 -350 -60 -146 -77 -191 -77 -203 0
-7 -4 -20 -9 -30 -9 -15 -40 -87 -61 -137 -5 -11 -11 -29 -13 -40 -3 -11 -15
-45 -27 -75 -12 -30 -24 -64 -27 -75 -4 -11 -11 -23 -16 -26 -5 -4 -11 -18
-12 -32 -5 -40 -27 -100 -46 -122 -10 -11 -21 -44 -25 -72 -8 -62 -12 -61 114
-49 23 2 45 0 47 -4 5 -8 90 -4 132 5 23 5 47 45 58 97 4 18 11 38 15 43 4 6
10 26 14 45 3 20 15 52 26 73 11 20 20 46 20 56 0 11 4 22 9 25 5 3 14 28 21
56 7 28 16 53 21 56 5 3 9 15 9 27 1 30 30 66 59 72 42 8 687 3 693 -5 21 -27
38 -62 33 -70 -3 -5 -2 -17 4 -27 22 -44 41 -92 53 -135 7 -27 16 -48 20 -48
4 0 10 -17 15 -37 9 -48 8 -43 21 -76 7 -16 12 -35 12 -43 0 -8 5 -23 10 -34
6 -11 15 -29 20 -40 6 -11 10 -27 10 -36 0 -10 5 -14 15 -11 8 4 17 2 20 -3 3
-5 20 -4 40 1 19 6 39 7 44 4 6 -3 49 -6 97 -6 106 -1 117 7 103 71 -6 25 -13
59 -16 75 -3 17 -14 41 -23 55 -10 14 -23 45 -30 70 -7 25 -19 59 -26 76 -7
17 -15 46 -16 65 -2 19 -8 39 -14 44 -7 6 -17 28 -24 50 -6 22 -22 63 -35 90
-12 28 -26 66 -30 85 -4 19 -13 44 -19 55 -7 11 -19 45 -26 75 -8 30 -19 62
-26 70 -6 8 -15 31 -19 50 -4 19 -10 37 -14 40 -9 7 -31 69 -43 118 -6 26 -15
42 -24 42 -9 0 -13 4 -10 9 6 10 -51 191 -65 206 -5 5 -9 19 -9 31 0 13 -4 26
-10 29 -5 3 -10 15 -10 25 0 10 -5 20 -11 22 -6 2 -14 27 -16 55 -4 36 -9 50
-18 47 -9 -4 -15 12 -20 56 -4 38 -12 63 -21 67 -8 3 -14 19 -14 39 0 22 -6
37 -15 40 -12 5 -13 10 -5 19 9 10 7 16 -7 24 -11 5 -24 31 -32 63 -8 29 -23
67 -35 83 l-21 30 -153 0 c-86 0 -157 -4 -162 -9z m174 -449 c10 -28 26 -80
35 -115 10 -35 22 -63 27 -62 5 0 13 -15 17 -32 4 -18 11 -40 14 -48 9 -21 11
-29 24 -80 6 -25 15 -53 20 -63 5 -9 16 -39 25 -65 8 -26 19 -56 24 -67 18
-42 22 -61 24 -95 l1 -35 -228 -1 c-148 0 -233 3 -242 10 -11 9 -12 19 -4 51
5 22 11 53 12 68 2 16 8 32 14 35 6 4 15 21 19 37 4 17 12 36 17 44 6 7 12 19
13 26 8 52 27 121 36 133 7 8 13 23 15 34 2 11 10 35 17 52 8 17 20 49 26 71
7 22 18 54 26 70 7 17 16 42 20 58 10 41 27 32 48 -26z"/>
<path d="M10098 8749 c-3 -13 -4 -64 -2 -114 2 -49 3 -103 4 -120 0 -22 3 -26
10 -15 11 17 12 223 1 253 -8 20 -8 20 -13 -4z"/>
<path d="M10090 8405 c0 -8 5 -15 10 -15 6 0 10 7 10 15 0 8 -4 15 -10 15 -5
0 -10 -7 -10 -15z"/>
<path d="M10088 8154 c-2 -126 -1 -217 1 -298 1 -16 4 -26 8 -23 7 8 5 448 -2
455 -3 3 -6 -57 -7 -134z"/>
<path d="M17168 8053 c7 -3 16 -2 19 1 4 3 -2 6 -13 5 -11 0 -14 -3 -6 -6z"/>
<path d="M10091 7751 c-1 -34 2 -42 11 -33 8 8 8 20 1 44 l-11 33 -1 -44z"/>
<path d="M10090 7644 c0 -8 5 -12 10 -9 6 4 8 11 5 16 -9 14 -15 11 -15 -7z"/>
<path d="M10093 7550 c0 -30 2 -43 4 -27 2 15 2 39 0 55 -2 15 -4 2 -4 -28z"/>
<path d="M17145 7530 c3 -5 8 -10 11 -10 2 0 4 5 4 10 0 6 -5 10 -11 10 -5 0
-7 -4 -4 -10z"/>
<path d="M10738 7413 c7 -3 16 -2 19 1 4 3 -2 6 -13 5 -11 0 -14 -3 -6 -6z"/>
<path d="M13860 7410 c0 -12 59 -10 66 2 3 4 -11 8 -30 8 -20 0 -36 -5 -36
-10z"/>
<path d="M13978 7403 c7 -3 16 -2 19 1 4 3 -2 6 -13 5 -11 0 -14 -3 -6 -6z"/>
<path d="M10090 7209 c0 -5 5 -7 10 -4 6 3 10 8 10 11 0 2 -4 4 -10 4 -5 0
-10 -5 -10 -11z"/>
<path d="M9133 7175 c-54 -25 -103 -108 -103 -175 0 -25 4 -28 38 -33 44 -5
72 7 72 31 1 22 19 46 48 61 30 16 96 -3 88 -26 -3 -8 -6 -21 -6 -28 0 -13
-65 -38 -87 -34 -28 5 -33 -4 -33 -60 l0 -59 61 0 c63 0 88 -15 89 -54 0 -26
-48 -58 -89 -58 -46 0 -76 26 -85 74 -6 33 -10 36 -41 36 -54 0 -65 -8 -65
-50 0 -21 7 -50 14 -66 8 -15 13 -31 10 -36 -3 -4 1 -8 8 -8 7 0 25 -11 39
-24 35 -32 64 -40 134 -37 93 4 121 16 152 68 33 57 43 169 17 208 -13 20 -14
30 -4 59 11 33 9 49 -11 131 -15 59 -60 87 -147 91 -44 2 -78 -1 -99 -11z"/>
<path d="M20102 7118 c-121 -13 -172 -63 -176 -168 l-1 -45 45 -3 c44 -2 45
-1 64 40 25 55 38 64 86 60 45 -5 59 -32 34 -69 -12 -19 -24 -23 -64 -23 l-50
0 0 -63 0 -64 55 5 c44 4 60 1 75 -13 46 -41 5 -109 -61 -101 -52 6 -78 24
-85 60 -8 48 -23 58 -70 48 -35 -7 -39 -11 -42 -41 -2 -19 5 -50 15 -70 22
-44 73 -93 91 -86 6 2 12 0 12 -6 0 -13 43 -28 55 -19 6 4 33 8 61 8 28 0 64
6 80 13 66 33 98 184 54 257 -15 25 -18 37 -10 52 11 21 13 92 4 128 -4 15
-12 21 -21 17 -12 -4 -14 0 -9 20 5 20 2 26 -19 31 -14 3 -25 10 -25 15 0 5
-6 9 -14 9 -8 0 -16 3 -18 8 -1 4 -31 4 -66 0z"/>
<path d="M10090 7076 c0 -14 5 -26 10 -26 6 0 10 9 10 19 0 11 -4 23 -10 26
-6 4 -10 -5 -10 -19z"/>
<path d="M12876 7061 c-30 -43 -49 -55 -84 -52 -36 4 -52 -17 -52 -66 0 -36 3
-44 15 -40 8 4 17 2 19 -2 3 -5 16 -7 28 -4 50 8 53 -4 52 -181 -1 -160 -1
-165 20 -169 11 -3 39 -2 61 2 l40 6 0 104 c1 96 2 104 24 120 23 18 23 18 3
23 -20 6 -22 13 -24 149 l-3 144 -36 3 c-32 3 -39 -1 -63 -37z"/>
<path d="M16423 7093 c-7 -3 -13 -15 -13 -27 0 -38 -22 -57 -75 -62 -28 -3
-54 -9 -58 -13 -4 -5 -5 -31 -1 -60 7 -54 12 -57 81 -53 32 1 37 -24 34 -160
-1 -55 -2 -58 -26 -58 -14 0 -25 -5 -25 -11 0 -7 11 -9 26 -6 24 4 25 2 23
-34 -4 -50 21 -79 64 -74 16 2 34 10 38 17 5 7 9 67 9 133 1 171 -1 399 -3
401 -8 5 -64 11 -74 7z"/>
<path d="M10087 6853 c-9 -14 -6 -233 4 -233 4 0 9 15 12 33 7 44 -6 215 -16
200z"/>
<path d="M15970 6691 c0 -6 9 -9 20 -8 11 1 20 5 20 9 0 4 -9 8 -20 8 -11 0
-20 -4 -20 -9z"/>
<path d="M16085 6690 c3 -5 8 -10 11 -10 2 0 4 5 4 10 0 6 -5 10 -11 10 -5 0
-7 -4 -4 -10z"/>
<path d="M16246 6692 c-10 -16 13 -35 43 -36 17 -1 26 3 21 8 -5 5 -6 15 -3
22 3 8 0 14 -6 14 -6 0 -11 -7 -11 -15 0 -8 -4 -15 -10 -15 -5 0 -10 7 -10 15
0 16 -15 20 -24 7z"/>
<path d="M15855 6640 c4 -6 11 -8 16 -5 14 9 11 15 -7 15 -8 0 -12 -5 -9 -10z"/>
<path d="M10081 6468 c-2 -73 -4 -144 -5 -157 0 -13 5 -26 12 -28 10 -4 13 23
13 124 0 70 1 141 2 157 1 16 -3 31 -9 33 -7 2 -11 -42 -13 -129z"/>
<path d="M13754 6494 c3 -9 6 -18 6 -20 0 -8 25 -4 40 6 13 9 13 11 0 20 -24
16 -53 12 -46 -6z"/>
<path d="M15757 6424 c-8 -8 1 -24 14 -24 5 0 9 7 9 15 0 15 -12 20 -23 9z"/>
<path d="M15800 6411 c0 -6 5 -13 10 -16 6 -3 10 1 10 9 0 9 -4 16 -10 16 -5
0 -10 -4 -10 -9z"/>
<path d="M15837 6396 c-4 -9 2 -16 16 -20 29 -7 31 -3 8 18 -16 14 -19 15 -24
2z"/>
<path d="M15640 6386 c0 -10 39 -46 50 -46 6 0 10 9 10 20 0 11 -6 20 -14 20
-8 0 -21 3 -30 6 -9 3 -16 3 -16 0z"/>
<path d="M10081 6203 c0 -31 2 -34 9 -18 12 28 12 55 0 55 -5 0 -10 -17 -9
-37z"/>
<path d="M22706 8782 c-3 -2 -65 -5 -138 -6 -73 -1 -137 -4 -143 -7 -5 -4 -21
-5 -35 -3 -55 9 -116 11 -125 5 -5 -4 -68 -4 -138 -1 -71 3 -135 1 -143 -3
-13 -7 -14 -77 -9 -505 3 -273 8 -510 10 -527 2 -16 7 -205 11 -420 3 -214 7
-401 9 -415 1 -14 3 -38 4 -54 1 -28 1 -28 48 -21 26 4 151 7 277 7 127 -1
234 2 239 5 5 3 188 7 406 8 218 1 417 2 444 3 l47 2 0 116 c0 63 -4 124 -10
134 -9 17 -31 18 -402 14 -593 -5 -618 -6 -618 -21 0 -16 -17 -17 -22 -2 -2 6
-27 14 -56 17 -29 2 -54 8 -57 12 -2 4 -6 129 -9 278 -5 262 -4 272 15 282 10
6 35 8 54 4 23 -4 35 -2 35 5 0 8 6 9 18 2 14 -7 137 -8 137 -1 0 3 305 8 592
11 l202 2 0 117 c1 80 -3 122 -12 134 -11 15 -32 19 -133 21 -65 2 -123 1
-127 -2 -14 -8 -762 -12 -775 -4 -14 8 -20 99 -23 355 -2 157 -1 169 17 179
10 6 77 12 149 13 251 5 841 14 907 14 l67 0 -1 124 c0 119 -1 124 -22 128
-43 8 -451 -3 -457 -13 -3 -6 -10 -4 -17 4 -10 11 -21 12 -57 4 -30 -7 -63 -7
-100 0 -30 5 -57 8 -59 5z m-706 -92 c0 -5 -2 -10 -4 -10 -3 0 -8 5 -11 10 -3
6 -1 10 4 10 6 0 11 -4 11 -10z m490 -19 c0 -11 -49 -21 -55 -10 -3 4 7 10 22
12 16 2 29 5 31 6 1 0 2 -3 2 -8z m268 -2 c-2 -6 -8 -10 -13 -10 -5 0 -11 4
-13 10 -2 6 4 11 13 11 9 0 15 -5 13 -11z m-433 -48 c-18 -7 -55 -4 -55 5 0 2
17 4 38 3 28 0 32 -2 17 -8z m225 -11 c0 -21 -23 -26 -69 -13 l-23 6 23 13
c37 21 69 18 69 -6z m25 0 c3 -5 1 -10 -4 -10 -6 0 -11 5 -11 10 0 6 2 10 4
10 3 0 8 -4 11 -10z m-285 -20 c0 -5 -4 -10 -10 -10 -5 0 -10 5 -10 10 0 6 5
10 10 10 6 0 10 -4 10 -10z m-230 -342 c0 -13 -23 -5 -28 10 -2 7 2 10 12 6 9
-3 16 -11 16 -16z m180 -148 c0 -5 -4 -10 -10 -10 -5 0 -10 5 -10 10 0 6 5 10
10 10 6 0 10 -4 10 -10z m1030 -210 c0 -5 -4 -10 -9 -10 -6 0 -13 5 -16 10 -3
6 1 10 9 10 9 0 16 -4 16 -10z m-630 -50 c0 -5 -2 -10 -4 -10 -3 0 -8 5 -11
10 -3 6 -1 10 4 10 6 0 11 -4 11 -10z m-486 -321 c-3 -5 -10 -7 -15 -3 -5 3
-7 10 -3 15 3 5 10 7 15 3 5 -3 7 -10 3 -15z m-84 -9 c0 -5 -2 -10 -4 -10 -3
0 -8 5 -11 10 -3 6 -1 10 4 10 6 0 11 -4 11 -10z m185 -130 c3 -5 -1 -10 -9
-10 -8 0 -18 5 -21 10 -3 6 1 10 9 10 8 0 18 -4 21 -10z m225 -310 c0 -5 -4
-10 -9 -10 -6 0 -13 5 -16 10 -3 6 1 10 9 10 9 0 16 -4 16 -10z m720 -40 c0
-5 -4 -10 -10 -10 -5 0 -10 5 -10 10 0 6 5 10 10 10 6 0 10 -4 10 -10z m-850
-19 c3 -1 -2 -6 -10 -10 -17 -10 -70 -3 -70 10 0 6 55 6 80 0z m50 -7 c0 -8
-5 -12 -10 -9 -6 4 -8 11 -5 16 9 14 15 11 15 -7z m37 0 c-3 -3 -12 -4 -19 -1
-8 3 -5 6 6 6 11 1 17 -2 13 -5z m139 -19 c-3 -9 -11 -13 -16 -10 -8 5 -7 11
1 21 14 18 24 11 15 -11z m-96 5 c0 -5 -4 -10 -10 -10 -5 0 -10 5 -10 10 0 6
5 10 10 10 6 0 10 -4 10 -10z m820 -40 c0 -5 -4 -10 -9 -10 -6 0 -13 5 -16 10
-3 6 1 10 9 10 9 0 16 -4 16 -10z m35 -10 c3 -5 -1 -10 -10 -10 -9 0 -13 5
-10 10 3 6 8 10 10 10 2 0 7 -4 10 -10z"/>
<path d="M25418 8772 c-23 -4 -27 -54 -23 -257 3 -147 7 -182 20 -191 19 -14
19 -24 0 -24 -11 0 -15 -13 -15 -53 0 -29 5 -58 10 -63 7 -7 7 -21 -1 -42 -6
-18 -8 -56 -5 -84 7 -67 7 -95 0 -189 -6 -73 -5 -76 18 -84 22 -7 22 -8 2 -12
-20 -4 -20 -7 -18 -404 1 -280 5 -403 13 -413 8 -10 8 -21 1 -41 -6 -16 -8
-47 -4 -70 l6 -42 63 -11 c103 -17 244 0 236 29 -2 8 -2 172 -1 364 1 193 1
369 0 392 -1 34 3 44 21 54 24 13 165 18 190 7 8 -4 32 -3 52 2 20 4 52 5 70
1 17 -4 43 -5 56 -1 52 12 236 -111 267 -180 10 -22 72 -103 135 -177 10 -13
24 -23 30 -23 6 0 17 -7 25 -15 9 -8 11 -15 5 -15 -21 0 -11 -28 19 -57 17
-15 30 -31 30 -35 0 -4 30 -51 67 -105 37 -54 82 -120 100 -148 18 -27 38 -58
45 -68 14 -20 93 -33 103 -18 3 6 13 7 21 4 9 -3 20 0 24 7 7 11 19 11 67 1
32 -6 76 -9 98 -7 22 3 44 5 48 5 14 1 -4 43 -44 104 -22 32 -39 62 -39 66 0
4 -11 18 -25 31 -14 13 -25 29 -25 37 0 7 -5 13 -10 13 -6 0 -19 20 -30 45
-11 25 -23 45 -28 45 -4 0 -16 17 -26 37 -10 21 -26 43 -37 51 -10 7 -19 19
-19 25 0 7 -16 32 -35 55 -19 24 -37 52 -40 62 -3 10 -17 25 -30 34 -14 9 -25
24 -25 34 0 10 -29 49 -65 87 -36 39 -65 73 -65 77 0 4 -15 14 -34 22 -41 17
-62 49 -43 64 6 5 27 13 45 17 22 5 32 11 28 21 -4 10 0 11 17 3 25 -11 33 -7
125 51 28 18 52 39 52 46 0 8 9 14 20 14 13 0 20 7 20 20 0 11 5 20 10 20 6 0
10 4 10 10 0 5 15 24 34 42 36 35 50 75 37 97 -11 18 -3 41 14 41 8 0 17 18
22 42 11 56 -3 231 -21 266 -8 16 -12 38 -9 50 3 14 -2 25 -16 34 -12 7 -21
22 -21 34 0 26 -58 83 -68 67 -8 -13 -52 -6 -52 8 0 5 12 9 26 9 37 0 25 24
-15 28 -24 3 -30 6 -22 16 15 17 -33 66 -64 66 -14 0 -25 4 -25 10 0 11 -57
29 -122 39 -37 6 -45 5 -37 -5 7 -8 6 -14 -2 -19 -6 -4 -14 -3 -18 2 -15 23
-110 42 -211 43 -244 2 -381 -5 -390 -19 -7 -12 -12 -12 -32 1 -22 14 -141 24
-213 18 -38 -4 -79 -3 -181 1 -44 2 -88 3 -96 1z m206 -66 c35 8 72 -2 80 -22
6 -15 0 -16 -49 -11 -55 6 -85 19 -85 39 0 6 6 6 14 -1 8 -7 25 -9 40 -5z
m156 -16 c0 -8 -24 -20 -41 -20 -14 0 -11 28 4 33 15 5 37 -2 37 -13z m-260
-4 c0 -14 -24 -29 -33 -19 -3 3 -3 11 0 19 7 18 33 18 33 0z m333 2 c36 -17
34 -28 -5 -25 -34 2 -62 20 -51 31 10 9 26 7 56 -6z m177 2 c0 -5 -4 -10 -10
-10 -5 0 -10 5 -10 10 0 6 5 10 10 10 6 0 10 -4 10 -10z m577 4 c-3 -3 -12 -4
-19 -1 -8 3 -5 6 6 6 11 1 17 -2 13 -5z m-597 -64 c0 -5 -4 -10 -10 -10 -5 0
-10 5 -10 10 0 6 5 10 10 10 6 0 10 -4 10 -10z m130 0 c0 -5 -11 -10 -25 -10
-14 0 -25 5 -25 10 0 6 11 10 25 10 14 0 25 -4 25 -10z m470 -30 c0 -5 -2 -10
-4 -10 -3 0 -8 5 -11 10 -3 6 -1 10 4 10 6 0 11 -4 11 -10z m-1160 -10 c0 -5
-4 -10 -10 -10 -5 0 -10 5 -10 10 0 6 5 10 10 10 6 0 10 -4 10 -10z m160 0 c0
-5 -2 -10 -4 -10 -3 0 -8 5 -11 10 -3 6 -1 10 4 10 6 0 11 -4 11 -10z m-115
-20 c3 -5 1 -10 -4 -10 -6 0 -11 5 -11 10 0 6 2 10 4 10 3 0 8 -4 11 -10z
m980 0 c3 -5 2 -10 -4 -10 -5 0 -13 5 -16 10 -3 6 -2 10 4 10 5 0 13 -4 16
-10z m-765 -40 c0 -5 -4 -10 -10 -10 -5 0 -10 5 -10 10 0 6 5 10 10 10 6 0 10
-4 10 -10z m749 -39 c11 -6 31 -11 44 -11 13 0 36 -9 50 -20 14 -11 29 -20 35
-20 18 0 72 -61 91 -103 15 -32 19 -58 16 -112 -6 -117 -24 -164 -87 -223 -26
-24 -26 -27 -11 -44 24 -27 7 -35 -21 -9 -19 18 -28 21 -44 12 -11 -6 -22 -7
-26 -4 -3 4 -17 1 -30 -7 -14 -7 -31 -10 -39 -7 -8 3 -19 1 -24 -4 -5 -5 -43
-9 -84 -10 -174 -2 -268 -11 -262 -25 7 -18 -11 -18 -26 0 -8 10 -41 13 -120
14 -60 0 -114 3 -120 6 -5 3 -21 1 -36 -6 -43 -20 -59 6 -59 99 -1 43 -5 84
-9 91 -6 8 -3 20 8 32 11 13 13 20 5 25 -7 4 -9 22 -6 45 3 21 1 53 -4 71 -7
22 -6 37 2 46 7 8 9 36 5 75 -7 79 8 95 91 97 384 8 495 11 498 14 7 7 143
-12 163 -22z m221 10 c0 -14 -18 -23 -30 -16 -6 4 -8 11 -5 16 8 12 35 12 35
0z m-70 -31 c0 -5 -2 -10 -4 -10 -3 0 -8 5 -11 10 -3 6 -1 10 4 10 6 0 11 -4
11 -10z m316 -17 c-7 -7 -26 7 -26 19 0 6 6 6 15 -2 9 -7 13 -15 11 -17z
m-206 7 c0 -5 -4 -10 -10 -10 -5 0 -10 5 -10 10 0 6 5 10 10 10 6 0 10 -4 10
-10z m-1190 -25 c0 -8 -7 -15 -15 -15 -8 0 -15 7 -15 15 0 8 7 15 15 15 8 0
15 -7 15 -15z m1150 5 c0 -5 -7 -10 -15 -10 -8 0 -15 5 -15 10 0 6 7 10 15 10
8 0 15 -4 15 -10z m130 0 c0 -5 -2 -10 -4 -10 -3 0 -8 5 -11 10 -3 6 -1 10 4
10 6 0 11 -4 11 -10z m-1233 -20 c-1 -11 -7 -20 -13 -20 -7 0 -10 8 -7 20 3
11 9 20 14 20 4 0 7 -9 6 -20z m1153 -15 c0 -9 -6 -12 -15 -9 -8 4 -15 10 -15
15 0 5 7 9 15 9 8 0 15 -7 15 -15z m-1083 -41 c-3 -3 -12 -4 -19 -1 -8 3 -5 6
6 6 11 1 17 -2 13 -5z m23 -54 c0 -5 -4 -10 -10 -10 -5 0 -10 5 -10 10 0 6 5
10 10 10 6 0 10 -4 10 -10z m1294 -6 c9 -3 16 -10 16 -16 0 -14 -43 -5 -48 10
-4 13 7 15 32 6z m-1384 -87 c25 -31 20 -49 -6 -23 -9 10 -27 24 -40 33 -13 8
-24 19 -24 23 0 17 49 -6 70 -33z m1190 -23 c0 -2 -7 -4 -15 -4 -8 0 -15 4
-15 10 0 5 7 7 15 4 8 -4 15 -8 15 -10z m55 -45 c11 -17 -2 -21 -24 -7 -28 17
-29 43 -2 28 11 -5 23 -15 26 -21z m73 -35 c14 -15 14 -16 -3 -13 -10 2 -20
10 -23 17 -5 17 6 15 26 -4z m-1302 -78 c20 -20 18 -26 -11 -26 -24 0 -34 18
-18 33 9 10 13 9 29 -7z m1162 -3 c12 -3 22 -9 22 -14 0 -5 -12 -7 -27 -3 -46
10 -53 13 -53 25 0 7 7 8 18 4 9 -4 27 -10 40 -12z m132 -33 c0 -5 -4 -10 -10
-10 -5 0 -10 5 -10 10 0 6 5 10 10 10 6 0 10 -4 10 -10z m-209 -96 c12 -14 11
-16 -5 -13 -11 2 -21 10 -24 17 -5 17 13 15 29 -4z m69 -34 c0 -5 -6 -10 -14
-10 -8 0 -18 5 -21 10 -3 6 3 10 14 10 12 0 21 -4 21 -10z m-856 -26 c8 -20
-8 -17 -35 5 l-24 19 27 -5 c15 -3 29 -11 32 -19z m239 19 c-7 -2 -19 -2 -25
0 -7 3 -2 5 12 5 14 0 19 -2 13 -5z m352 -15 c6 -13 17 -23 25 -24 27 -2 31
-4 26 -13 -3 -5 -22 -3 -43 4 -25 9 -37 19 -38 34 -2 28 18 27 30 -1z m-234
-1 c-1 -12 -15 -9 -19 4 -3 6 1 10 8 8 6 -3 11 -8 11 -12z m-66 -17 c3 -5 1
-10 -4 -10 -6 0 -11 5 -11 10 0 6 2 10 4 10 3 0 8 -4 11 -10z m-200 -30 c-3
-5 -10 -10 -16 -10 -5 0 -9 5 -9 10 0 6 7 10 16 10 8 0 12 -4 9 -10z m-255
-30 c8 -5 11 -12 7 -16 -4 -4 -15 0 -24 9 -18 18 -8 23 17 7z m-235 -19 c7
-12 -12 -24 -25 -16 -11 7 -4 25 10 25 5 0 11 -4 15 -9z m65 -41 c0 -5 -7 -10
-15 -10 -8 0 -15 5 -15 10 0 6 7 10 15 10 8 0 15 -4 15 -10z m580 0 c0 -5 7
-10 16 -10 9 0 14 -6 11 -12 -5 -14 -35 -12 -54 4 -7 6 -10 14 -7 19 7 12 34
11 34 -1z m85 -50 c8 -13 -5 -13 -25 0 -13 8 -13 10 2 10 9 0 20 -4 23 -10z
m76 -53 c-13 -13 -26 -3 -16 12 3 6 11 8 17 5 6 -4 6 -10 -1 -17z m-597 -138
c-8 -14 -24 -10 -24 6 0 9 6 12 15 9 8 -4 12 -10 9 -15z m-254 -80 c0 -5 -10
-9 -21 -9 -18 0 -19 2 -9 15 12 15 30 12 30 -6z m1327 -45 c-9 -9 -28 6 -21
18 4 6 10 6 17 -1 6 -6 8 -13 4 -17z m-152 -104 c3 -5 -1 -10 -10 -10 -9 0
-13 5 -10 10 3 6 8 10 10 10 2 0 7 -4 10 -10z m440 -340 c3 -5 -1 -10 -10 -10
-9 0 -13 5 -10 10 3 6 8 10 10 10 2 0 7 -4 10 -10z m-155 -40 c14 -11 19 -20
12 -20 -19 0 -72 29 -72 39 0 13 31 3 60 -19z m-1369 10 c25 0 25 -16 0 -23
-12 -3 -27 3 -38 16 -17 20 -17 20 0 14 10 -4 27 -7 38 -7z m67 -36 c29 -14
43 -34 24 -34 -19 0 -62 26 -62 38 0 15 0 15 38 -4z"/>
<path d="M23805 7077 c-21 -47 -37 -62 -68 -64 -50 -2 -56 -9 -50 -50 3 -21 7
-40 9 -42 2 -2 22 -5 46 -7 23 -2 45 -7 50 -12 4 -4 9 -79 10 -167 3 -178 2
-174 75 -160 l35 6 -5 52 c-3 29 -7 147 -9 262 l-3 210 -38 2 c-33 2 -39 -1
-52 -30z"/>
<path d="M27394 7063 c-8 -8 -14 -20 -14 -27 0 -23 -47 -58 -68 -52 -36 12
-70 -13 -75 -53 -6 -49 6 -60 71 -63 l57 -3 3 -107 3 -107 32 -15 c64 -28 65
-28 72 15 4 22 3 45 -3 52 -6 8 -6 30 1 66 11 50 10 54 -12 72 -13 11 -31 19
-42 19 -10 0 -21 5 -25 11 -7 12 12 10 61 -6 19 -6 20 -2 19 90 -1 55 -7 102
-13 108 -16 16 -51 16 -67 0z"/>
<path d="M27374 6580 c9 -56 12 -60 46 -60 47 0 60 9 60 45 0 28 -4 34 -27 38
-16 3 -41 9 -57 13 l-29 7 7 -43z"/>
</g>
</svg>
